<?xml version="1.0" encoding="UTF-8"?>
<svg id="b" data-name="Layer 2" xmlns="http://www.w3.org/2000/svg" xmlns:xlink="http://www.w3.org/1999/xlink" viewBox="0 0 143.47 117.9">
  <defs>
    <style>
      .q {
        fill: none;
      }

      .q, .r, .s, .t, .u, .v, .w, .x, .y, .z, .aa, .ab, .ac, .ad {
        stroke-width: 0px;
      }

      .r {
        fill: url(#e);
      }

      .s {
        fill: url(#f);
      }

      .t {
        fill: url(#d);
      }

      .u {
        fill: url(#j);
      }

      .v {
        fill: url(#i);
      }

      .w {
        fill: url(#h);
      }

      .x {
        fill: url(#m);
      }

      .y {
        fill: url(#g);
      }

      .z {
        fill: url(#o);
      }

      .aa {
        fill: url(#p);
      }

      .ab {
        fill: url(#k);
      }

      .ac {
        fill: url(#n);
      }

      .ad {
        fill: url(#l);
      }
    </style>
    <linearGradient id="d" x1="-108.29" y1="66.34" x2="117.05" y2="66.34" gradientUnits="userSpaceOnUse">
      <stop offset="0" stop-color="#ffe64c"/>
      <stop offset="1" stop-color="#ef3340"/>
    </linearGradient>
    <linearGradient id="e" x1="-108.29" y1="64.86" x2="117.05" y2="64.86" xlink:href="#d"/>
    <linearGradient id="f" x1="-108.29" y1="63.34" x2="117.05" y2="63.34" xlink:href="#d"/>
    <linearGradient id="g" x1="-108.29" y1="61.79" x2="117.05" y2="61.79" xlink:href="#d"/>
    <linearGradient id="h" x1="-108.29" y1="60.16" x2="117.05" y2="60.16" xlink:href="#d"/>
    <linearGradient id="i" x1="-108.29" y1="60.46" x2="117.05" y2="60.46" xlink:href="#d"/>
    <radialGradient id="j" cx="72.23" cy="37.18" fx="72.23" fy="37.18" r="80.3" gradientTransform="translate(4.54 2.92) rotate(9.04) scale(1 .62)" gradientUnits="userSpaceOnUse">
      <stop offset="0" stop-color="#ef3340" stop-opacity=".3"/>
      <stop offset=".1" stop-color="#ef3840" stop-opacity=".32"/>
      <stop offset=".24" stop-color="#f04841" stop-opacity=".38"/>
      <stop offset=".41" stop-color="#f36243" stop-opacity=".49"/>
      <stop offset=".6" stop-color="#f68645" stop-opacity=".63"/>
      <stop offset=".81" stop-color="#fab448" stop-opacity=".81"/>
      <stop offset="1" stop-color="#ffe64c"/>
    </radialGradient>
    <radialGradient id="k" cx="72.23" cy="37.18" fx="72.23" fy="37.18" r="80.3" gradientTransform="translate(4.54 2.92) rotate(9.04) scale(1 .62)" xlink:href="#j"/>
    <radialGradient id="l" cx="72.23" cy="37.18" fx="72.23" fy="37.18" r="80.3" gradientTransform="translate(4.54 2.92) rotate(9.04) scale(1 .62)" xlink:href="#j"/>
    <radialGradient id="m" cx="72.23" cy="37.18" fx="72.23" fy="37.18" r="80.3" gradientTransform="translate(4.54 2.92) rotate(9.04) scale(1 .62)" xlink:href="#j"/>
    <radialGradient id="n" cx="72.23" cy="37.18" fx="72.23" fy="37.18" r="80.3" gradientTransform="translate(4.54 2.92) rotate(9.04) scale(1 .62)" xlink:href="#j"/>
    <linearGradient id="o" x1="10.05" y1="51.26" x2="128" y2="51.26" gradientUnits="userSpaceOnUse">
      <stop offset="0" stop-color="#f58220"/>
      <stop offset="1" stop-color="#ffc600"/>
    </linearGradient>
    <radialGradient id="p" cx="72.23" cy="37.18" fx="72.23" fy="37.18" r="80.3" gradientTransform="translate(4.54 2.92) rotate(9.04) scale(1 .62)" xlink:href="#j"/>
  </defs>
  <g id="c" data-name="Layer 1">
    <path class="q" d="M12.61.83s0,.05,0,.07c0,.08-.01.17-.02.26,0,.05,0,.1,0,.16,0,.07,0,.16-.01.24,0,.08,0,.16-.01.25,0,.08,0,.16-.01.24,0,.1,0,.2-.01.31,0,.08,0,.16,0,.24,0,.12,0,.25-.01.38,0,.08,0,.16,0,.24,0,.14,0,.29-.01.44,0,.08,0,.16,0,.24,0,.16,0,.33,0,.5,0,.08,0,.16,0,.24,0,.19,0,.38,0,.58,0,.07,0,.14,0,.21,0,.23,0,.47,0,.72,0,.04,0,.08,0,.13.01,1.5.07,3.23.2,5.16,0,0,0,0,0,0,.02.37.05.75.08,1.14,0,.06,0,.12.01.18.03.34.06.68.09,1.02,0,.08.01.16.02.23.03.33.06.66.1,1,0,.09.02.19.03.28.03.33.07.66.11,1,.01.1.02.2.04.3.04.33.08.67.13,1.01.01.11.03.22.04.33.05.34.09.68.14,1.03.02.11.03.22.05.34.05.35.11.7.16,1.05.02.11.04.23.06.34.06.36.12.72.18,1.08.02.11.04.23.06.34.07.37.14.75.21,1.12.02.11.04.22.06.33.08.39.16.79.24,1.19.02.09.04.19.06.28.09.43.19.87.29,1.3.01.06.03.13.04.19.11.49.23.99.35,1.49,0,0,0,.02,0,.03.51,2.07,1.11,4.21,1.82,6.37.02.06.04.11.06.17.15.47.31.94.48,1.42.04.12.08.23.12.35.15.42.3.84.45,1.26.05.14.11.29.16.43.15.39.3.79.46,1.19.06.16.13.32.19.48.15.38.31.76.47,1.14.07.17.15.34.22.51.16.37.32.74.48,1.11.08.18.16.36.25.55.16.36.33.72.5,1.09.09.19.18.37.27.56.17.36.35.72.53,1.08.09.19.19.38.29.56.18.36.37.72.56,1.08.1.19.2.38.3.56.19.36.39.72.6,1.08.1.19.21.37.31.56.21.36.42.73.64,1.09.11.18.21.36.32.53.23.38.47.76.71,1.14.1.16.2.32.3.48.26.41.53.81.81,1.22.09.13.17.26.26.39.33.48.66.96,1,1.43.04.06.08.11.12.17.77,1.07,1.58,2.14,2.43,3.19.08.1.16.19.24.29.34.42.69.84,1.04,1.25.14.16.28.32.41.47.31.35.61.7.93,1.05.17.19.34.37.51.56.29.32.59.64.89.95.19.2.38.39.58.59.29.3.59.6.89.89.21.2.42.41.63.61.3.29.6.57.9.85.22.21.45.41.67.61.3.28.61.55.92.82.24.21.47.41.71.61.31.27.63.53.95.8.25.2.5.41.75.61.32.26.65.52.98.77.26.2.52.4.78.6.33.25.67.5,1.02.75.27.2.54.39.82.59.35.25.7.49,1.06.73.28.19.56.38.84.57.37.24.74.48,1.11.72.29.18.57.36.86.54.39.24.79.48,1.18.71.29.17.57.34.86.51.42.24.85.48,1.28.72.28.15.55.31.84.47.48.26.97.51,1.46.76.24.13.48.25.73.38.74.37,1.5.74,2.27,1.1,0,0,24.74,16.5,54.2,15.32l.85-.64c-.26-.58-.54-1.16-.85-1.72-5.89-10.6-20.03-7.07-57.74-29.46C18.84,42.8,13.34,5.67,12.74.6l-.11-.03c0,.08-.01.17-.02.26Z"/>
    <path class="t" d="M37.35,66.76c-.3-.28-.6-.57-.9-.85.3.29.6.57.9.85Z"/>
    <path class="r" d="M35.82,65.3c-.3-.3-.6-.6-.89-.89.29.3.59.6.89.89Z"/>
    <path class="s" d="M34.36,63.82c-.3-.32-.6-.63-.89-.95.29.32.59.64.89.95Z"/>
    <path class="y" d="M32.95,62.31c-.32-.35-.62-.7-.93-1.05.31.35.61.7.93,1.05Z"/>
    <path class="w" d="M31.61,60.79c-.36-.42-.7-.83-1.04-1.25.34.42.69.84,1.04,1.25Z"/>
    <path class="v" d="M131.69,100.16s-6.25,2.34-17.47,1.94c0-.26-.04-.52-.05-.77l-2.51,1.19C11.11,103.57,9.43,20.04,10.13,3.02-7.51,25.98,3.25,64.81,3.25,64.81l22.39,8.25-18.85-1.18c3.53,8.25,14.14,21.21,14.14,21.21l23.57-1.18-14.14,8.25c14.14,15.32,43.6,17.67,43.6,17.67l16.5-8.25-5.89,8.25c14.93.57,23.14-2.78,26.95-7.58h0s21.36,1.69,31.96-5.38l-11.78-4.71Z"/>
    <path class="u" d="M32.02,61.26c-.14-.16-.28-.31-.41-.47.14.16.28.32.41.47Z"/>
    <path class="ab" d="M38.03,67.38c-.23-.2-.45-.41-.67-.61.22.21.45.41.67.61Z"/>
    <path class="ad" d="M36.45,65.91c-.21-.2-.42-.4-.63-.61.21.2.42.41.63.61Z"/>
    <path class="x" d="M33.46,62.87c-.17-.19-.35-.37-.51-.56.17.19.34.37.51.56Z"/>
    <path class="ac" d="M34.93,64.41c-.19-.2-.39-.39-.58-.59.19.2.38.39.58.59Z"/>
    <path class="z" d="M112.51,94.81c-.26-.58-.54-1.16-.85-1.72-5.89-10.6-20.03-7.07-57.74-29.46C16.21,41.24,12.68,0,12.68,0c0,0-.02.2-.05.57l-.37-.09c-.75.82-1.46,1.67-2.13,2.54-.7,17.02.98,100.55,101.53,99.5l2.51-1.19c-.14-2.21-.72-4.43-1.66-6.52ZM12.47,5.43h0c0,.09,0,.18,0,.28,0-.09,0-.19,0-.28ZM12.47,5.04c0-.14,0-.28,0-.41,0,0,0,0,0,0,0,.13,0,.27,0,.41ZM12.55,1.81s0,0,0,0c0-.05,0-.1,0-.15,0,.05,0,.1,0,.16ZM12.58,1.32s0,0,0,0c0-.06,0-.11,0-.16,0,0,0,0,0,0,0,.06,0,.11-.01.17ZM12.67,11.43s0,0,0,0c0,0,0-.01,0-.02.02.31.04.63.07.95-.02-.31-.05-.63-.07-.93ZM13.11,16.29c-.04-.34-.08-.67-.11-1,0,0,0,0,0,0,.04.33.07.66.11,1,0,0,0,0,0,0ZM13.15,16.59s0,0,0,0c.02.16.04.32.06.48-.02-.16-.04-.32-.06-.48ZM13.46,18.96c-.05-.35-.1-.69-.14-1.03,0,0,0,0,0,0,.05.34.09.69.14,1.03,0,0,0,0,0,0ZM13.67,20.36c-.04-.27-.08-.53-.12-.79.04.26.08.53.12.79,0,0,0,0,0,0ZM13.73,20.7s0,0,0,0c.03.21.07.41.11.62-.04-.21-.07-.42-.11-.62ZM14.24,23.58h0s0,.01,0,.02c0,0,0-.01,0-.02ZM14.87,26.54h0c.05.2.1.41.15.62-.05-.21-.1-.42-.15-.62ZM15.23,28.06s0,0,0,0c0,0,0,0,0,0,0,0,0,0,0,0ZM17.05,34.43s0,0,0,0c0,0,0,0,0,0,0,0,0,0,0,0ZM17.58,36.02c-.17-.47-.32-.95-.48-1.42,0,0,0,0,0-.01.16.48.32.95.48,1.43,0,0,0,0,0,0ZM18.16,37.63c-.16-.42-.31-.84-.45-1.26,0,0,0,0,0,0,.15.42.3.84.45,1.26,0,0,0,0,0,0ZM19.44,40.87c-.1-.25-.2-.5-.3-.75.1.25.2.5.31.75,0,0,0,0,0,0ZM20.14,42.5c-.16-.37-.33-.74-.48-1.11,0,0,0,0,0,0,.16.37.32.74.48,1.11,0,0,0,0,0,0ZM20.89,44.13c-.17-.36-.34-.72-.5-1.09,0,0,0,0,0,0,.16.36.33.73.5,1.09,0,0,0,0,0,0ZM21.69,45.77c-.15-.29-.29-.58-.43-.88.14.29.29.59.43.88,0,0,0,0,0,0ZM22.53,47.41c-.06-.12-.12-.23-.18-.35.06.12.12.24.18.35,0,0,0,0,0,0ZM23.43,49.05c-.2-.36-.4-.72-.6-1.08,0,0,0,0,0,0,.2.36.4.72.6,1.08,0,0,0,0,0,0ZM25.41,52.37c-.16-.25-.31-.5-.47-.75.15.25.31.5.47.75,0,0,0,0,0,0ZM27.77,55.89c-.34-.48-.67-.95-1-1.43,0,0,0,0,0,0,.33.48.66.96,1.01,1.44,0,0,0,0,0,0ZM30.32,59.24s0,0,0,0c0,0,0,0,0,0,0,0,0,0,0,0ZM32.95,62.31c-.2-.22-.39-.44-.58-.66.19.22.39.44.58.66,0,0,0,0,0,0ZM36.45,65.91h0c.08.08.17.16.26.24-.08-.08-.17-.16-.26-.24ZM38.95,68.2c-.31-.27-.62-.55-.92-.82,0,0,0,0,0,0,.3.28.61.55.92.82,0,0,0,0,0,0ZM39.66,68.81s0,0,0,0c.2.17.39.33.59.5-.2-.16-.4-.33-.59-.49ZM46.02,73.65c-.36-.24-.71-.49-1.06-.73h0c.35.25.7.49,1.06.73,0,0,0,0,0,0ZM47.97,74.94c-.11-.07-.22-.15-.34-.22.11.07.23.15.34.22,0,0,0,0,0,0ZM48.83,75.48s0,0,0,0c.38.23.76.46,1.15.69-.38-.23-.77-.46-1.15-.69ZM55.19,79.03s0,0,0,0c.74.37,1.5.74,2.27,1.1-.77-.36-1.52-.72-2.27-1.1Z"/>
    <path class="aa" d="M111.66,102.51l2.51-1.19c-.14-2.21-.72-4.43-1.66-6.52l-.85.64c-29.46,1.18-54.2-15.32-54.2-15.32-.77-.36-1.52-.72-2.27-1.1-.25-.12-.49-.25-.73-.38-.49-.25-.98-.5-1.46-.76-.28-.15-.56-.31-.84-.47-.43-.24-.86-.48-1.28-.72-.29-.17-.57-.34-.86-.51-.4-.24-.79-.47-1.18-.71-.29-.18-.57-.36-.86-.54-.37-.24-.75-.48-1.11-.72-.28-.19-.56-.38-.84-.57-.36-.24-.71-.49-1.06-.73-.27-.19-.54-.39-.82-.59-.34-.25-.68-.5-1.02-.75-.26-.2-.52-.4-.78-.6-.33-.26-.66-.51-.98-.77-.25-.2-.5-.4-.75-.61-.32-.26-.64-.53-.95-.8-.24-.2-.48-.41-.71-.61-.31-.27-.62-.55-.92-.82-.23-.2-.45-.41-.67-.61-.3-.28-.6-.57-.9-.85-.21-.2-.42-.4-.63-.61-.3-.3-.6-.6-.89-.89-.19-.2-.39-.39-.58-.59-.3-.32-.6-.63-.89-.95-.17-.19-.35-.37-.51-.56-.32-.35-.62-.7-.93-1.05-.14-.16-.28-.31-.41-.47-.36-.42-.7-.83-1.04-1.25-.08-.1-.16-.19-.24-.29-.85-1.05-1.66-2.12-2.43-3.19-.04-.06-.08-.11-.12-.17-.34-.48-.67-.95-1-1.43-.09-.13-.17-.26-.26-.39-.27-.41-.54-.81-.81-1.22-.1-.16-.2-.32-.3-.48-.24-.38-.48-.76-.71-1.14-.11-.18-.21-.35-.32-.53-.22-.36-.43-.73-.64-1.09-.11-.19-.21-.37-.31-.56-.2-.36-.4-.72-.6-1.08-.1-.19-.2-.38-.3-.56-.19-.36-.38-.72-.56-1.08-.1-.19-.19-.38-.29-.56-.18-.36-.36-.72-.53-1.08-.09-.19-.18-.37-.27-.56-.17-.36-.34-.72-.5-1.09-.08-.18-.17-.36-.25-.55-.16-.37-.33-.74-.48-1.11-.07-.17-.15-.34-.22-.51-.16-.38-.32-.76-.47-1.14-.06-.16-.13-.32-.19-.48-.16-.4-.31-.79-.46-1.19-.05-.14-.11-.29-.16-.43-.16-.42-.31-.84-.45-1.26-.04-.12-.08-.23-.12-.35-.17-.47-.32-.95-.48-1.42-.02-.06-.04-.11-.06-.17-.71-2.17-1.31-4.3-1.82-6.37,0,0,0-.02,0-.03-.12-.5-.24-1-.35-1.49-.01-.06-.03-.13-.04-.19-.1-.44-.19-.87-.29-1.3-.02-.09-.04-.19-.06-.28-.08-.4-.16-.8-.24-1.19-.02-.11-.04-.22-.06-.33-.07-.38-.14-.75-.21-1.12-.02-.11-.04-.23-.06-.34-.06-.36-.12-.72-.18-1.08-.02-.12-.04-.23-.06-.34-.06-.35-.11-.71-.16-1.05-.02-.11-.03-.23-.05-.34-.05-.35-.1-.69-.14-1.03-.01-.11-.03-.22-.04-.33-.04-.34-.09-.68-.13-1.01-.01-.1-.02-.2-.04-.3-.04-.34-.08-.67-.11-1,0-.09-.02-.19-.03-.28-.03-.34-.07-.67-.1-1,0-.08-.01-.16-.02-.23-.03-.35-.06-.69-.09-1.02,0-.06,0-.12-.01-.18-.03-.39-.06-.77-.08-1.14,0,0,0,0,0,0-.13-1.92-.18-3.65-.2-5.16,0-.04,0-.08,0-.13,0-.25,0-.49,0-.72,0-.07,0-.14,0-.21,0-.2,0-.39,0-.58,0-.08,0-.16,0-.24,0-.17,0-.34,0-.5,0-.08,0-.16,0-.24,0-.15,0-.3.01-.44,0-.08,0-.16,0-.24,0-.13,0-.26.01-.38,0-.08,0-.16,0-.24,0-.11,0-.21.01-.31,0-.08,0-.16.01-.24,0-.09,0-.17.01-.25,0-.08,0-.16.01-.24,0-.06,0-.11,0-.16,0-.09.01-.18.02-.26,0-.03,0-.05,0-.07,0-.09.01-.18.02-.26l-.37-.09c-.75.82-1.46,1.67-2.13,2.54-.7,17.02.98,100.55,101.53,99.5Z"/>
  </g>
</svg>