<?xml version="1.0" encoding="UTF-8"?>
<svg id="b" data-name="Layer 2" xmlns="http://www.w3.org/2000/svg" xmlns:xlink="http://www.w3.org/1999/xlink" viewBox="0 0 214.11 274.7">
  <defs>
    <style>
      .bh {
        fill: none;
      }

      .bh, .bi, .bj, .bk, .bl, .bm, .bn, .bo, .bp, .bq, .br, .bs, .bt, .bu, .bv, .bw, .bx, .by, .bz, .ca, .cb, .cc, .cd, .ce, .cf, .cg, .ch, .ci, .cj, .ck, .cl, .cm, .cn, .co, .cp, .cq, .cr, .cs, .ct, .cu, .cv, .cw, .cx, .cy, .cz, .da, .db, .dc, .dd, .de, .df, .dg, .dh, .di, .dj, .dk, .dl {
        stroke-width: 0px;
      }

      .bi {
        fill: url(#am);
      }

      .bi, .bj {
        opacity: .3;
      }

      .bj {
        fill: url(#ak);
      }

      .bk {
        fill: url(#ah);
      }

      .bl {
        fill: url(#ag);
      }

      .bm {
        fill: url(#aa);
      }

      .bn {
        fill: url(#ao);
      }

      .bo {
        fill: url(#af);
      }

      .bp {
        fill: url(#ae);
      }

      .bq {
        fill: url(#ab);
      }

      .br {
        fill: url(#aj);
      }

      .bs {
        fill: url(#ap);
      }

      .bt {
        fill: url(#ai);
      }

      .bu {
        fill: url(#ad);
      }

      .bv {
        fill: url(#an);
      }

      .bw {
        fill: url(#ac);
      }

      .bx {
        fill: url(#at);
      }

      .by {
        fill: url(#as);
      }

      .bz {
        fill: url(#bd);
      }

      .ca {
        fill: url(#bg);
      }

      .cb {
        fill: url(#be);
      }

      .cc {
        fill: url(#bf);
      }

      .cd {
        fill: url(#ba);
      }

      .ce {
        fill: url(#bb);
      }

      .cf {
        fill: url(#bc);
      }

      .cg {
        fill: url(#ar);
      }

      .ch {
        fill: url(#ay);
      }

      .ci {
        fill: url(#az);
      }

      .cj {
        fill: url(#aw);
      }

      .ck {
        fill: url(#aq);
      }

      .cl {
        fill: url(#ax);
      }

      .cm {
        fill: url(#al);
      }

      .cn {
        fill: url(#au);
      }

      .co {
        fill: url(#av);
      }

      .cp {
        fill: url(#v);
      }

      .cq {
        fill: url(#e);
      }

      .cr {
        fill: url(#y);
      }

      .cs {
        fill: url(#z);
      }

      .ct {
        fill: url(#x);
      }

      .cu {
        fill: url(#w);
      }

      .cv {
        fill: url(#u);
      }

      .cw {
        fill: url(#t);
      }

      .cx {
        fill: url(#f);
      }

      .cy {
        fill: url(#d);
      }

      .cz {
        fill: url(#s);
      }

      .da {
        fill: url(#j);
      }

      .db {
        fill: url(#q);
      }

      .dc {
        fill: url(#r);
      }

      .dd {
        fill: url(#i);
      }

      .de {
        fill: url(#h);
      }

      .df {
        fill: url(#m);
      }

      .dg {
        fill: url(#g);
      }

      .dh {
        fill: url(#o);
      }

      .di {
        fill: url(#p);
      }

      .dj {
        fill: url(#k);
      }

      .dk {
        fill: url(#n);
      }

      .dl {
        fill: url(#l);
      }
    </style>
    <linearGradient id="d" x1="24.71" y1="145.99" x2="44.22" y2="135.51" gradientTransform="translate(-102.77 102.26) rotate(-53.59)" gradientUnits="userSpaceOnUse">
      <stop offset="0" stop-color="#f58220"/>
      <stop offset="1" stop-color="#ffc600"/>
    </linearGradient>
    <linearGradient id="e" x1="-11.3" y1="300.56" x2="97.41" y2="300.56" gradientTransform="translate(-93.4 74.99) rotate(119.81) scale(1 -1)" gradientUnits="userSpaceOnUse">
      <stop offset="0" stop-color="#ffe64c"/>
      <stop offset="1" stop-color="#ef3340"/>
    </linearGradient>
    <linearGradient id="f" x1="-11.3" y1="300.86" x2="97.41" y2="300.86" xlink:href="#e"/>
    <linearGradient id="g" x1="-11.3" y1="301.38" x2="97.41" y2="301.38" xlink:href="#e"/>
    <linearGradient id="h" x1="-11.3" y1="302.35" x2="97.41" y2="302.35" xlink:href="#e"/>
    <linearGradient id="i" x1="-11.3" y1="301.97" x2="97.41" y2="301.97" xlink:href="#e"/>
    <linearGradient id="j" x1="-11.3" y1="302.83" x2="97.41" y2="302.83" xlink:href="#e"/>
    <linearGradient id="k" x1="-11.3" y1="299.59" x2="97.41" y2="299.59" xlink:href="#e"/>
    <linearGradient id="l" x1="-11.3" y1="299.37" x2="97.41" y2="299.37" xlink:href="#e"/>
    <linearGradient id="m" x1="-11.3" y1="300.15" x2="97.4" y2="300.15" xlink:href="#e"/>
    <linearGradient id="n" x1="-11.3" y1="299.8" x2="97.41" y2="299.8" xlink:href="#e"/>
    <linearGradient id="o" x1="-11.3" y1="299.29" x2="97.41" y2="299.29" xlink:href="#e"/>
    <linearGradient id="p" x1="-11.3" y1="306.74" x2="97.41" y2="306.74" xlink:href="#e"/>
    <linearGradient id="q" x1="-11.3" y1="306.64" x2="97.41" y2="306.64" xlink:href="#e"/>
    <linearGradient id="r" x1="-11.3" y1="306.46" x2="97.41" y2="306.46" xlink:href="#e"/>
    <linearGradient id="s" x1="-11.3" y1="252.09" x2="97.41" y2="252.09" xlink:href="#e"/>
    <linearGradient id="t" x1="-11.3" y1="304.47" x2="97.41" y2="304.47" xlink:href="#e"/>
    <linearGradient id="u" x1="-11.3" y1="303.52" x2="97.41" y2="303.52" xlink:href="#e"/>
    <linearGradient id="v" x1="-11.3" y1="305.33" x2="97.41" y2="305.33" xlink:href="#e"/>
    <linearGradient id="w" x1="-11.3" y1="305.79" x2="97.41" y2="305.79" xlink:href="#e"/>
    <linearGradient id="x" x1="-11.3" y1="306.17" x2="97.41" y2="306.17" xlink:href="#e"/>
    <linearGradient id="y" x1="-11.3" y1="252.09" x2="97.41" y2="252.09" xlink:href="#e"/>
    <linearGradient id="z" x1="-20.71" y1="285.92" x2="73.41" y2="235.37" gradientTransform="translate(-93.4 74.99) rotate(119.81) scale(1 -1)" xlink:href="#d"/>
    <linearGradient id="aa" x1="-109.54" y1="189.3" x2="226.73" y2="189.3" gradientTransform="matrix(1,0,0,1,0,0)" xlink:href="#e"/>
    <radialGradient id="ab" cx="133.86" cy="189.3" fx="246.87" fy="197.23" r="120.42" gradientTransform="translate(123.95 3.76) rotate(43.03) scale(1 .68)" gradientUnits="userSpaceOnUse">
      <stop offset="0" stop-color="#b31e26"/>
      <stop offset="1" stop-color="#d22630" stop-opacity="0"/>
    </radialGradient>
    <linearGradient id="ac" x1="-109.54" y1="186.69" x2="226.73" y2="186.69" gradientTransform="matrix(1,0,0,1,0,0)" xlink:href="#e"/>
    <linearGradient id="ad" x1="-123.06" y1="205.65" x2="223.45" y2="205.65" gradientTransform="matrix(1,0,0,1,0,0)" xlink:href="#e"/>
    <linearGradient id="ae" x1="-109.54" y1="111.63" x2="226.73" y2="111.63" gradientTransform="matrix(1,0,0,1,0,0)" xlink:href="#e"/>
    <linearGradient id="af" x1="-109.54" y1="56.03" x2="226.73" y2="56.03" gradientTransform="matrix(1,0,0,1,0,0)" xlink:href="#e"/>
    <linearGradient id="ag" x1="106.57" y1="107.83" x2="20.26" y2="2.96" gradientTransform="matrix(1,0,0,1,0,0)" xlink:href="#d"/>
    <linearGradient id="ah" x1="187.28" y1="222.36" x2="94.29" y2="109.37" gradientTransform="matrix(1,0,0,1,0,0)" xlink:href="#d"/>
    <linearGradient id="ai" x1="-109.54" y1="153.3" x2="226.73" y2="153.3" gradientTransform="matrix(1,0,0,1,0,0)" xlink:href="#e"/>
    <linearGradient id="aj" x1="202.12" y1="210.15" x2="109.12" y2="97.16" gradientTransform="matrix(1,0,0,1,0,0)" xlink:href="#d"/>
    <linearGradient id="ak" x1="151.65" y1="242.11" x2="-23.69" y2="29.09" gradientTransform="matrix(1,0,0,1,0,0)" xlink:href="#d"/>
    <linearGradient id="al" x1="234.48" y1="328.01" x2="-168.54" y2="-161.63" gradientUnits="userSpaceOnUse">
      <stop offset="0" stop-color="#ef3340"/>
      <stop offset="1" stop-color="#ffe64c"/>
    </linearGradient>
    <linearGradient id="am" x1="159.29" y1="235.83" x2="-16.05" y2="22.81" gradientTransform="matrix(1,0,0,1,0,0)" xlink:href="#d"/>
    <radialGradient id="an" cx="45.84" cy="84.36" fx="45.84" fy="84.36" r="95.78" gradientTransform="translate(58.11 19.71) rotate(54.9) scale(1 .56)" gradientUnits="userSpaceOnUse">
      <stop offset="0" stop-color="#ef3340" stop-opacity=".3"/>
      <stop offset=".1" stop-color="#ef3840" stop-opacity=".32"/>
      <stop offset=".24" stop-color="#f04841" stop-opacity=".38"/>
      <stop offset=".41" stop-color="#f36243" stop-opacity=".49"/>
      <stop offset=".6" stop-color="#f68645" stop-opacity=".63"/>
      <stop offset=".81" stop-color="#fab448" stop-opacity=".81"/>
      <stop offset="1" stop-color="#ffe64c"/>
    </radialGradient>
    <linearGradient id="ao" x1="-36.49" y1="92.67" x2="167.01" y2="92.67" gradientTransform="matrix(1,0,0,1,0,0)" xlink:href="#e"/>
    <linearGradient id="ap" x1="-109.54" y1="149.71" x2="226.73" y2="149.71" gradientTransform="matrix(1,0,0,1,0,0)" xlink:href="#e"/>
    <radialGradient id="aq" cx="142.15" cy="152.96" fx="142.15" fy="152.96" r="70.93" gradientTransform="translate(130.46 -12.57) rotate(54.9) scale(1 .56)" xlink:href="#an"/>
    <linearGradient id="ar" x1="127.56" y1="59.95" x2="192.29" y2="59.95" gradientTransform="matrix(1,0,0,1,0,0)" xlink:href="#e"/>
    <linearGradient id="as" x1="390.09" y1="-109.28" x2="486.76" y2="-109.28" gradientTransform="translate(233.95 -410.96) rotate(84.49) scale(1 -1)" xlink:href="#e"/>
    <linearGradient id="at" x1="390.09" y1="-109.91" x2="486.76" y2="-109.91" gradientTransform="translate(233.95 -410.96) rotate(84.49) scale(1 -1)" xlink:href="#e"/>
    <linearGradient id="au" x1="390.09" y1="-110.56" x2="486.76" y2="-110.56" gradientTransform="translate(233.95 -410.96) rotate(84.49) scale(1 -1)" xlink:href="#e"/>
    <linearGradient id="av" x1="390.09" y1="-111.23" x2="486.76" y2="-111.23" gradientTransform="translate(233.95 -410.96) rotate(84.49) scale(1 -1)" xlink:href="#e"/>
    <linearGradient id="aw" x1="390.09" y1="-111.93" x2="486.76" y2="-111.93" gradientTransform="translate(233.95 -410.96) rotate(84.49) scale(1 -1)" xlink:href="#e"/>
    <linearGradient id="ax" x1="355.55" y1="-111.17" x2="495.85" y2="-111.17" gradientTransform="translate(233.95 -410.96) rotate(84.49) scale(1 -1)" xlink:href="#e"/>
    <linearGradient id="ay" x1="450.11" y1="-111.56" x2="450.29" y2="-111.56" gradientTransform="translate(233.95 -410.96) rotate(84.49) scale(1 -1)" xlink:href="#e"/>
    <linearGradient id="az" x1="452.57" y1="-108.96" x2="452.86" y2="-108.96" gradientTransform="translate(233.95 -410.96) rotate(84.49) scale(1 -1)" xlink:href="#e"/>
    <linearGradient id="ba" x1="451.91" y1="-109.59" x2="452.19" y2="-109.59" gradientTransform="translate(233.95 -410.96) rotate(84.49) scale(1 -1)" xlink:href="#e"/>
    <linearGradient id="bb" x1="450.68" y1="-110.89" x2="450.9" y2="-110.89" gradientTransform="translate(233.95 -410.96) rotate(84.49) scale(1 -1)" xlink:href="#e"/>
    <linearGradient id="bc" x1="451.29" y1="-110.23" x2="451.53" y2="-110.23" gradientTransform="translate(233.95 -410.96) rotate(84.49) scale(1 -1)" xlink:href="#e"/>
    <linearGradient id="bd" x1="429.23" y1="-116.89" x2="502.67" y2="-116.89" gradientTransform="translate(233.95 -410.96) rotate(84.49) scale(1 -1)" xlink:href="#d"/>
    <linearGradient id="be" x1="380.82" y1="-143.37" x2="514.79" y2="-94.12" gradientTransform="translate(233.95 -410.96) rotate(84.49) scale(1 -1)" xlink:href="#e"/>
    <linearGradient id="bf" x1="-1.3" y1="140.04" x2="68.15" y2="140.04" gradientTransform="translate(-102.77 102.26) rotate(-53.59)" xlink:href="#e"/>
    <radialGradient id="bg" cx="80.36" cy="167.19" fx="99.99" fy="167.19" r="20.91" gradientTransform="translate(99.28 29.15) rotate(43.03) scale(1 .68)" xlink:href="#ab"/>
  </defs>
  <g id="c" data-name="Layer 1">
    <g>
      <path class="cy" d="M8.27,153.21s5.74,2.54,12.24-2.82c6.5-5.37,24.08-5.1,33.6,9.54l-12.15-3.04-15.1,3.26-9.81-.47-8.77-6.47Z"/>
      <g>
        <path class="cq" d="M155.14,245.61c.13-.11.27-.21.41-.33-.13.11-.27.22-.41.33Z"/>
        <path class="cx" d="M155.55,245.28c.29-.23.56-.44.84-.66-.29.23-.57.45-.84.66Z"/>
        <path class="dg" d="M156.39,244.62c.44-.35.9-.71,1.38-1.09-.44.35-.9.71-1.38,1.09Z"/>
        <path class="de" d="M158.85,242.66c.18-.14.35-.28.53-.42-.17.14-.35.28-.53.42Z"/>
        <path class="dd" d="M157.76,243.53c.37-.3.74-.59,1.09-.86-.37.29-.73.58-1.09.86Z"/>
        <path class="da" d="M159.38,242.24c.52-.41,1.02-.81,1.49-1.18-.5.39-1,.79-1.49,1.18Z"/>
        <path class="dj" d="M152.93,247.36c.24-.19.48-.38.71-.56-.3.24-.54.43-.71.56Z"/>
        <path class="dl" d="M152.72,247.52c.05-.04.12-.1.21-.16-.07.06-.13.11-.21.16Z"/>
        <path class="df" d="M153.82,246.65c.45-.36.89-.7,1.31-1.04-.5.39-.94.75-1.31,1.04Z"/>
        <path class="dk" d="M153.64,246.79c.06-.05.12-.09.18-.15-.06.05-.12.1-.18.15Z"/>
        <path class="dh" d="M152.6,247.61s.08-.06.12-.09c-.08.06-.12.09-.12.09Z"/>
        <path class="di" d="M168.32,235.16c.18-.14.16-.13,0,0h0Z"/>
        <path class="db" d="M168.03,235.39c.12-.1.22-.17.29-.23-.07.05-.17.13-.29.23Z"/>
        <path class="dc" d="M167.56,235.77c.19-.15.35-.27.47-.38-.13.1-.29.23-.47.38Z"/>
        <path class="cz" d="M79.6,244.74c-7.67-9.27-23.56-18.37-23.56-18.37,0,0,16.94,1.59,46.26,18.39,29.32,16.8,50.3,2.85,50.3,2.85-35.66,28.25-65.33,6.39-73-2.88Z"/>
        <path class="cw" d="M162.31,239.92c.98-.78,1.82-1.45,2.55-2.02-.78.62-1.65,1.31-2.55,2.02Z"/>
        <path class="cv" d="M160.87,241.07c.48-.38.97-.77,1.44-1.14-.45.36-.93.73-1.44,1.14Z"/>
        <path class="cp" d="M164.86,237.91c.38-.3.75-.59,1.08-.86-.32.26-.69.55-1.08.86Z"/>
        <path class="cu" d="M165.94,237.05c.32-.26.61-.49.87-.69-.27.21-.56.44-.87.69Z"/>
        <path class="ct" d="M166.81,236.36c.28-.22.53-.42.75-.59-.21.17-.46.36-.75.59Z"/>
        <path class="cr" d="M102.31,244.76c-29.32-16.8-46.26-18.39-46.26-18.39,0,0,20.96-2.6,45.4,11.4,24.44,14,51.16,9.84,51.16,9.84,0,0-20.97,13.95-50.3-2.85Z"/>
        <path class="cs" d="M102.31,244.76c-29.32-16.8-46.26-18.39-46.26-18.39,0,0,20.96-2.6,45.4,11.4,24.44,14,51.16,9.84,51.16,9.84,0,0-20.97,13.95-50.3-2.85Z"/>
      </g>
      <path class="bm" d="M182.21,228.4l31.89,46.3s-10.29-30.86-29.84-55.56c-33.95-50.41-130.66-115.23-130.66-115.23,46.3,32.92,126.55,119.34,126.55,119.34-2.06-2.06-9.26-3.09-9.26-3.09-48.35-12.35-109.24-57.84-109.25-57.85,6.54,6.13,50.77,46,113.36,64.02,0,0,5.14,1.03,7.2,2.06Z"/>
      <path class="bq" d="M182.21,228.4l31.89,46.3s-10.29-30.86-29.84-55.56c-33.95-50.41-130.66-115.23-130.66-115.23,46.3,32.92,126.55,119.34,126.55,119.34-2.06-2.06-9.26-3.09-9.26-3.09-48.35-12.35-109.24-57.84-109.25-57.85,6.54,6.13,50.77,46,113.36,64.02,0,0,5.14,1.03,7.2,2.06Z"/>
      <g>
        <path class="bw" d="M143.64,185.35c.91.92,1.79,1.81,2.66,2.69-.88-.89-1.76-1.78-2.66-2.69Z"/>
        <path class="bu" d="M146.3,188.04c19.77,20.05,33.86,35.22,33.86,35.22,0,0-3.89-4.87-33.86-35.22Z"/>
        <path class="bp" d="M61.84,128.6C17.6,98.77,1.14,0,1.14,0c0,0-8.23,52.47,19.55,105.97,27.78,53.5,70.99,62.76,70.99,62.76,0,0-17.49-1.03-30.86-7.2,0,0,.28.28.84.8,0,0,60.89,45.5,109.25,57.85,0,0,7.2,1.03,9.26,3.09,0,0-14.09-15.17-33.86-35.22-.87-.88-1.75-1.77-2.66-2.69-32.4-32.76-37.56-26.91-81.8-56.74Z"/>
      </g>
      <g>
        <path class="bh" d="M115.34,102.88s0-.01,0-.03c0,.02,0,.03,0,.03Z"/>
        <path class="bo" d="M68.01,63.79c44.15,21.07,47.2,38.23,47.32,39.06-.1-.72-2.35-15.65-14.4-25.69-11.5-9.58-63.12-28.08-93.44-67.96h0s15.25,32.98,60.52,54.58Z"/>
        <path class="bl" d="M68.01,63.79c44.15,21.07,47.2,38.23,47.32,39.06-.1-.72-2.35-15.65-14.4-25.69-11.5-9.58-63.12-28.08-93.44-67.96h0s15.25,32.98,60.52,54.58Z"/>
      </g>
      <g>
        <path class="bk" d="M184.27,219.14c-1.59-2.36-3.32-4.76-5.17-7.18l5.17,7.18Z"/>
        <path class="bt" d="M115.34,87.45s65.79,51.49,63.76,124.51c1.85,2.42,3.58,4.81,5.17,7.18,0,0,10.29-83.34-68.93-131.69Z"/>
        <path class="br" d="M115.34,87.45s65.79,51.49,63.76,124.51c1.85,2.42,3.58,4.81,5.17,7.18,0,0,10.29-83.34-68.93-131.69Z"/>
      </g>
      <g>
        <path class="bj" d="M91.68,168.73l-1.08-.27c.7.19,1.08.27,1.08.27Z"/>
        <path class="cm" d="M146.3,188.04c-.87-.88-1.75-1.77-2.66-2.69-32.4-32.76-37.56-26.91-81.8-56.74C17.6,98.77,1.14,0,1.14,0c0,0-12.35,109.06,90.54,168.73,0,0-17.49-1.03-30.86-7.2,0,0,.28.28.84.8,0,0,60.89,45.5,109.25,57.85,0,0,7.2,1.03,9.26,3.09,0,0-14.09-15.17-33.86-35.22Z"/>
        <path class="bi" d="M1.14,0S-7.09,52.47,20.69,105.97c25.19,48.52,63.08,60.65,69.91,62.49l1.08.27C-11.21,109.06,1.14,0,1.14,0Z"/>
        <path class="bv" d="M1.14,0S-7.09,52.47,20.69,105.97c25.19,48.52,63.08,60.65,69.91,62.49l1.08.27C-11.21,109.06,1.14,0,1.14,0Z"/>
      </g>
      <g>
        <path class="bn" d="M115.34,87.45v15.43s0-.02,0-.03c-.12-.83-3.17-17.99-47.32-39.06C22.75,42.18,7.49,9.21,7.49,9.21h0C5.26,6.26,3.12,3.19,1.14,0c0,0,16.46,98.77,60.7,128.6,44.24,29.84,49.4,23.98,81.8,56.74-27.2-27.47-63.99-62.92-90.03-81.44,0,0,55.18,36.99,96.82,76.81.83-12.61-3.43-40.06-35.09-93.27Z"/>
        <path class="bs" d="M179.1,211.96c2.03-73.02-63.76-124.51-63.76-124.51,31.66,53.21,35.92,80.66,35.09,93.27,10.9,10.42,20.87,21.04,28.67,31.24Z"/>
        <path class="ck" d="M179.1,211.96c2.03-73.02-63.76-124.51-63.76-124.51,31.66,53.21,35.92,80.66,35.09,93.27,10.9,10.42,20.87,21.04,28.67,31.24Z"/>
      </g>
      <path class="cg" d="M127.72,32.12s.03,0,.04,0c.05,0,.1-.02.16-.03.03,0,.06-.01.1-.02.05,0,.1-.01.15-.02.05,0,.1-.02.15-.02.05,0,.1-.01.15-.02.06,0,.13-.02.19-.03.05,0,.1-.01.15-.02.08-.01.15-.02.23-.03.05,0,.1-.01.15-.02.09-.01.18-.02.27-.03.05,0,.1-.01.15-.02.1-.01.21-.02.31-.03.05,0,.1-.01.15-.02.12-.01.24-.02.36-.04.04,0,.09,0,.13-.01.14-.01.29-.03.45-.04.03,0,.05,0,.08,0,.93-.08,2.01-.15,3.21-.19,0,0,0,0,0,0,.23,0,.47-.01.71-.02.04,0,.07,0,.11,0,.21,0,.42,0,.64,0,.05,0,.1,0,.15,0,.21,0,.42,0,.63,0,.06,0,.12,0,.18,0,.21,0,.42,0,.63,0,.06,0,.13,0,.19,0,.21,0,.42.01.64.02.07,0,.14,0,.21,0,.21,0,.43.02.65.03.07,0,.14,0,.21.01.22.01.44.02.66.04.07,0,.14,0,.22.01.23.01.45.03.68.05.07,0,.14.01.22.02.23.02.47.04.71.06.07,0,.14.01.21.02.25.02.5.05.75.08.06,0,.12.01.18.02.27.03.55.06.83.1.04,0,.08,0,.12.01.31.04.63.08.95.13,0,0,.01,0,.02,0,1.32.19,2.67.44,4.06.75.04,0,.07.02.11.02.3.07.6.14.91.21.07.02.15.04.22.06.27.07.54.13.81.21.09.02.18.05.28.07.25.07.51.14.76.21.1.03.21.06.31.09.25.07.49.15.74.22.11.03.22.07.33.1.24.08.48.15.72.23.12.04.24.08.35.12.23.08.47.16.7.25.12.04.24.09.36.13.23.09.47.17.7.26.12.05.24.09.37.14.23.09.47.19.7.28.12.05.25.1.37.15.23.1.47.2.7.3.12.05.24.11.36.16.24.11.48.22.72.33.12.05.23.11.35.16.25.12.5.24.75.37.11.05.21.1.32.16.27.14.54.28.81.43.08.05.17.09.25.14.32.17.63.35.95.53.04.02.07.04.11.06.71.41,1.42.85,2.12,1.32.07.04.13.09.19.13.28.19.56.38.84.57.11.07.21.15.32.23.24.17.47.34.71.51.13.09.25.19.37.29.21.16.43.33.64.5.13.11.27.21.4.32.2.16.41.33.61.5.14.12.28.24.41.35.19.17.39.34.58.51.14.13.28.25.42.38.19.17.38.35.56.52.14.13.28.27.42.41.18.18.37.36.55.54.14.14.28.28.42.43.18.19.36.37.54.56.14.15.28.3.42.45.18.19.35.39.53.59.14.16.28.31.41.47.17.2.35.41.52.61.13.16.27.32.4.49.17.21.34.43.51.65.13.17.26.33.39.5.17.23.34.46.51.69.12.17.25.33.37.5.18.25.35.5.52.75.11.16.23.32.34.49.19.28.37.57.56.86.09.14.19.28.28.43.28.44.55.88.82,1.34,0,0,11.7,14.35,12.74,32.68l-.35.57c-.38-.13-.75-.27-1.12-.43-6.93-3.02-5.58-11.99-21.71-34.02-15.01-20.5-38.35-21.68-41.53-21.75l-.02-.07s.1-.02.16-.03Z"/>
      <path class="by" d="M168.83,50c-.13-.12-.27-.23-.4-.35.13.12.27.23.4.35Z"/>
      <path class="bx" d="M168.14,49.4c-.14-.12-.28-.23-.42-.34.14.11.28.23.42.34Z"/>
      <path class="cn" d="M167.45,48.84c-.15-.12-.3-.23-.44-.34.15.11.3.23.44.34Z"/>
      <path class="co" d="M166.75,48.3c-.16-.12-.32-.24-.49-.35.16.12.32.23.49.35Z"/>
      <path class="cj" d="M166.04,47.79c-.19-.13-.39-.27-.58-.39.19.13.39.26.58.39Z"/>
      <path class="cl" d="M196.4,99.98s1.08-4.01.16-10.94c-.16.01-.32,0-.48.01l.59-1.63c-5.36-62.38-57.23-58.42-67.74-56.97,13.18-12.31,37.88-7.96,37.88-7.96l6.45,13.38-1.86-11.61c5.32,1.7,13.99,7.5,13.99,7.5l.68,14.68,4.27-9.26c10.34,7.85,13.56,25.96,13.56,25.96l-4.13,10.72,4.76-4.14c1.25,9.22-.34,14.5-3.09,17.16h0s2.32,13.14-1.42,20.13l-3.63-7.02Z"/>
      <path class="ch" d="M166.26,47.95c-.07-.05-.15-.11-.22-.16.07.05.15.11.22.16Z"/>
      <path class="ci" d="M169.12,50.26c-.1-.09-.19-.18-.29-.26.1.09.19.17.29.26Z"/>
      <path class="cd" d="M168.43,49.65c-.1-.08-.19-.16-.29-.24.1.08.19.16.29.24Z"/>
      <path class="ce" d="M167.01,48.49c-.09-.07-.17-.13-.26-.2.09.06.17.13.26.2Z"/>
      <path class="cf" d="M167.72,49.06c-.09-.07-.18-.15-.27-.22.09.07.18.15.27.22Z"/>
      <path class="bz" d="M196.08,89.05l.59-1.63c-5.36-62.38-57.23-58.42-67.74-56.97-.5.47-.98.95-1.45,1.47l.08.22c-.23.04-.35.06-.35.06,0,0,25.77-.28,41.9,21.76,16.13,22.03,14.79,31.01,21.71,34.02.37.16.74.3,1.12.43,1.35.46,2.76.68,4.14.64ZM130.74,31.74c-.06,0-.12.01-.17.02h0c.06,0,.12-.01.17-.02ZM130.07,31.8s0,0,0,0c.08,0,.17-.02.25-.03-.09,0-.17.02-.25.03ZM128.23,32.04s.06,0,.09-.01c0,0,0,0,0,0-.03,0-.06,0-.1.01ZM127.92,32.08s0,0,0,0c.03,0,.06-.01.1-.02,0,0,0,0,0,0-.04,0-.07.01-.11.02ZM134.88,31.5c-.2,0-.4,0-.6.01,0,0,0,0,.01,0,0,0,0,0,0,0,.19,0,.39-.01.58-.01ZM137.34,31.5c-.21,0-.42,0-.63,0,0,0,0,0,0,0,.21,0,.42,0,.63,0,0,0,0,0,0,0ZM137.82,31.51c-.1,0-.2,0-.3,0,0,0,0,0,0,0,.1,0,.2,0,.3,0ZM139.01,31.56c-.22-.01-.43-.02-.65-.03,0,0,0,0,0,0,.21,0,.43.02.65.03,0,0,0,0,0,0ZM139.89,31.61c-.17-.01-.33-.02-.5-.03.16,0,.33.02.5.03,0,0,0,0,0,0ZM140.5,31.65c-.13,0-.26-.02-.39-.03,0,0,0,0,0,0,.13,0,.26.02.39.03ZM141.93,31.77s0,0-.01,0h0s0,0,.01,0ZM144.19,32.03c-.13-.02-.26-.04-.4-.05h0c.13.02.26.04.39.05ZM144.76,32.11s0,0,0,0c0,0,0,0,0,0,0,0,0,0,0,0ZM148.82,32.85s0,0,0,0c0,0,0,0,0,0,0,0,0,0,0,0ZM149.83,33.09c-.31-.07-.61-.15-.92-.21,0,0,0,0,0,0,.3.07.6.14.91.21,0,0,0,0,0,0ZM150.86,33.35c-.27-.07-.54-.14-.81-.21,0,0,0,0,0,0,.27.07.54.13.81.21,0,0,0,0,0,0ZM152.95,33.95c-.16-.05-.32-.1-.48-.14.16.05.32.09.48.14,0,0,0,0,0,0ZM154,34.29c-.24-.08-.48-.16-.72-.23,0,0,0,0,0,0,.24.08.48.15.72.23,0,0,0,0,0,0ZM155.05,34.66c-.24-.08-.47-.17-.71-.25,0,0,0,0,0,0,.23.08.47.16.7.25,0,0,0,0,0,0ZM156.12,35.05c-.19-.07-.38-.14-.57-.22.19.07.38.14.57.21,0,0,0,0,0,0ZM157.19,35.48c-.08-.03-.15-.06-.23-.09.08.03.15.06.23.09,0,0,0,0,0,0ZM158.26,35.94c-.24-.1-.47-.21-.71-.31,0,0,0,0,0,0,.23.1.47.2.7.3,0,0,0,0,0,0ZM160.43,36.97c-.16-.08-.33-.16-.49-.25.16.08.33.16.49.24,0,0,0,0,0,0ZM162.76,38.22c-.32-.18-.63-.36-.95-.54,0,0,0,0,0,0,.32.17.63.35.95.53,0,0,0,0,0,0ZM164.99,39.6s0,0,0,0c0,0,0,0,0,0,0,0,0,0,0,0ZM167.04,41.04c-.15-.11-.3-.21-.44-.32.15.11.3.21.44.32,0,0,0,0,0,0ZM169.65,43.14c-.06-.05-.11-.1-.17-.14h0c.06.05.11.1.17.14ZM171.05,44.41c-.19-.18-.38-.35-.57-.52,0,0,0,0,0,0,.19.17.38.35.56.52,0,0,0,0,0,0ZM171.82,45.15c-.11-.11-.23-.23-.34-.34,0,0,0,0,0,0,.11.11.23.22.34.34ZM174.85,48.47c-.17-.21-.34-.41-.52-.61h0c.17.2.35.41.52.61,0,0,0,0,0,0ZM175.77,49.6c-.05-.07-.1-.13-.16-.2.05.07.1.13.16.2,0,0,0,0,0,0ZM176.65,50.77c-.17-.22-.33-.45-.5-.67,0,0,0,0,0,0,.17.22.33.44.5.67ZM179.55,55.17c-.27-.46-.54-.9-.82-1.34,0,0,0,0,0,0,.28.44.55.88.82,1.34Z"/>
      <path class="cb" d="M196.67,87.42l-.59,1.63c-1.38.05-2.79-.18-4.14-.64l.35-.57c-1.03-18.33-12.74-32.68-12.74-32.68-.27-.46-.54-.9-.82-1.34-.09-.15-.19-.29-.28-.43-.19-.29-.37-.58-.56-.86-.11-.17-.23-.33-.34-.49-.17-.25-.35-.5-.52-.75-.12-.17-.25-.34-.37-.5-.17-.23-.34-.46-.51-.69-.13-.17-.26-.33-.39-.5-.17-.22-.34-.43-.51-.65-.13-.16-.27-.33-.4-.49-.17-.21-.34-.41-.52-.61-.14-.16-.27-.31-.41-.47-.17-.2-.35-.39-.53-.59-.14-.15-.28-.3-.42-.45-.18-.19-.36-.38-.54-.56-.14-.14-.28-.29-.42-.43-.18-.18-.37-.36-.55-.54-.14-.14-.28-.27-.42-.41-.19-.18-.38-.35-.56-.52-.14-.13-.28-.26-.42-.38-.19-.17-.39-.34-.58-.51-.14-.12-.28-.24-.41-.35-.2-.17-.4-.33-.61-.5-.13-.11-.27-.22-.4-.32-.21-.17-.43-.33-.64-.5-.13-.1-.25-.19-.37-.29-.23-.17-.47-.34-.71-.51-.11-.08-.21-.15-.32-.23-.28-.2-.56-.39-.84-.57-.06-.04-.13-.09-.19-.13-.7-.46-1.41-.9-2.12-1.32-.04-.02-.07-.04-.11-.06-.31-.18-.63-.36-.95-.53-.08-.05-.17-.09-.25-.14-.27-.14-.54-.29-.81-.43-.11-.05-.21-.11-.32-.16-.25-.13-.5-.25-.75-.37-.12-.06-.23-.11-.35-.16-.24-.11-.48-.22-.72-.33-.12-.05-.24-.11-.36-.16-.23-.1-.47-.21-.7-.3-.12-.05-.25-.1-.37-.15-.23-.1-.47-.19-.7-.28-.12-.05-.24-.1-.37-.14-.23-.09-.47-.18-.7-.26-.12-.04-.24-.09-.36-.13-.23-.08-.47-.17-.7-.25-.12-.04-.24-.08-.35-.12-.24-.08-.48-.16-.72-.23-.11-.04-.22-.07-.33-.1-.25-.08-.49-.15-.74-.22-.1-.03-.21-.06-.31-.09-.25-.07-.51-.14-.76-.21-.09-.02-.18-.05-.28-.07-.27-.07-.54-.14-.81-.21-.07-.02-.15-.04-.22-.06-.3-.07-.61-.14-.91-.21-.04,0-.07-.02-.11-.02-1.38-.31-2.74-.55-4.06-.75,0,0-.01,0-.02,0-.32-.05-.63-.09-.95-.13-.04,0-.08,0-.12-.01-.28-.04-.55-.07-.83-.1-.06,0-.12-.01-.18-.02-.25-.03-.5-.05-.75-.08-.07,0-.14-.01-.21-.02-.24-.02-.47-.04-.71-.06-.07,0-.14-.01-.22-.02-.23-.02-.46-.03-.68-.05-.07,0-.14,0-.22-.01-.22-.01-.44-.03-.66-.04-.07,0-.14,0-.21-.01-.22-.01-.43-.02-.65-.03-.07,0-.14,0-.21,0-.21,0-.43-.01-.64-.02-.06,0-.13,0-.19,0-.21,0-.42,0-.63,0-.06,0-.12,0-.18,0-.21,0-.42,0-.63,0-.05,0-.1,0-.15,0-.22,0-.43,0-.64,0-.04,0-.08,0-.11,0-.24,0-.48.01-.71.02,0,0,0,0,0,0-1.2.04-2.28.11-3.21.19-.03,0-.05,0-.08,0-.15.01-.3.03-.45.04-.05,0-.09,0-.13.01-.12.01-.24.02-.36.04-.05,0-.1.01-.15.02-.11.01-.21.02-.31.03-.05,0-.1.01-.15.02-.09.01-.18.02-.27.03-.05,0-.1.01-.15.02-.08.01-.16.02-.23.03-.05,0-.1.01-.15.02-.07,0-.13.02-.19.03-.05,0-.1.01-.15.02-.05,0-.1.02-.15.02-.05,0-.1.02-.15.02-.03,0-.07.01-.1.02-.06,0-.11.02-.16.03-.02,0-.03,0-.04,0-.06,0-.11.02-.16.03l-.08-.22c.46-.52.95-1,1.45-1.47,10.51-1.45,62.38-5.41,67.74,56.97Z"/>
      <path class="cc" d="M8.27,153.21s8.92,7.42,20.87,2.69c11.95-4.73,24.97,4.02,24.97,4.02,0,0-15.15-3.56-21.51,2.76-6.35,6.32-15.53.4-24.33-9.48Z"/>
      <path class="ca" d="M60.81,161.53s12.35,10.29,39.1,11.32l-8.23-4.12s-19.55-1.03-30.86-7.2Z"/>
    </g>
  </g>
</svg>