<svg width="121" height="120" viewBox="0 0 121 120" fill="none" xmlns="http://www.w3.org/2000/svg">
  <path
    d="M24.5 1H96.5C109.203 1 119.5 11.2975 119.5 24V96C119.5 108.703 109.203 119 96.5 119H24.5C11.7975 119 1.5 108.703 1.5 96V24C1.5 11.2975 11.7975 1 24.5 1Z"
    fill="#F5F7FA" fill-opacity="0.04" stroke="url(#paint0_linear_95_547)" stroke-width="2" />
  <path
    d="M74.2761 36.0002C73.8076 36.007 73.3604 36.1962 73.0292 36.5275L67.301 42.2556L61.2096 43.8962C58.6204 44.5924 56.6136 46.6562 55.9876 49.2634L52.9173 62.0555C52.6379 63.2203 53.003 64.2928 53.6064 65.2008C53.6928 65.4813 53.8464 65.7364 54.0539 65.9439C54.2614 66.1515 54.5165 66.3051 54.797 66.3915C55.7056 66.9961 56.7788 67.3626 57.9447 67.0829L70.737 64.0126C73.3437 63.3867 75.4069 61.3796 76.1042 58.7907L77.7448 52.6993L83.473 46.9712C83.8104 46.6337 84 46.1759 84 45.6986C84 45.2213 83.8104 44.7635 83.473 44.4259L75.5745 36.5275C75.4043 36.3573 75.2017 36.2229 74.9787 36.1323C74.7557 36.0417 74.5168 35.9968 74.2761 36.0002ZM74.3018 40.3455L79.655 45.6986L76.4487 48.9025L71.0979 43.5494L74.3018 40.3455ZM41.4 44.4001C39.75 44.4001 38.2846 45.0837 37.3547 46.1298C36.4248 47.176 36 48.5001 36 49.8001C36 51.1001 36.4248 52.4243 37.3547 53.4704C37.9494 54.1395 38.8067 54.5696 39.7477 54.8579C40.4949 68.5559 51.3966 79.5888 65.0838 80.3531C65.3034 81.0416 65.6467 81.6986 66.1549 82.2703C67.0848 83.3164 68.5502 84 70.2002 84C71.8503 84 73.3157 83.3164 74.2456 82.2703C75.1755 81.2242 75.6003 79.9 75.6003 78.6C75.6003 77.3 75.1755 75.9758 74.2456 74.9297C73.3157 73.8836 71.8503 73.2 70.2002 73.2C68.5502 73.2 67.0848 73.8836 66.1549 74.9297C65.6758 75.4687 65.3362 76.0821 65.1143 76.7274C53.3476 75.9869 44.0463 66.5822 43.3407 54.7993C44.1658 54.4989 44.9091 54.0737 45.4454 53.4704C46.3753 52.4243 46.8001 51.1001 46.8001 49.8001C46.8001 48.5001 46.3753 47.176 45.4454 46.1298C44.5155 45.0837 43.0501 44.4001 41.4 44.4001ZM68.1987 45.7408L74.2573 51.8017L72.6284 57.8556C72.2715 59.1777 71.2289 60.1915 69.8979 60.511L59.5525 62.9954L65.0111 57.5345C65.1517 57.5547 65.2934 57.5648 65.4354 57.5649C66.231 57.5649 66.9941 57.2489 67.5567 56.6863C68.1193 56.1237 68.4354 55.3606 68.4354 54.565C68.4354 53.7693 68.1193 53.0062 67.5567 52.4436C66.9941 51.881 66.231 51.565 65.4354 51.565C65.006 51.5654 64.5817 51.658 64.1912 51.8365C63.8007 52.015 63.4531 52.2752 63.1718 52.5996C62.8905 52.924 62.6821 53.305 62.5607 53.7168C62.4394 54.1286 62.4078 54.5617 62.4682 54.9868L57.0025 60.4524L59.4892 50.1025C59.8088 48.7713 60.8243 47.727 62.1447 47.372L68.1987 45.7408ZM41.4 48.0001C42.15 48.0001 42.4846 48.2166 42.7547 48.5204C43.0248 48.8243 43.2001 49.3001 43.2001 49.8001C43.2001 50.3001 43.0248 50.7759 42.7547 51.0798C42.4964 51.3705 42.1421 51.5589 41.4586 51.5767C41.4188 51.5754 41.3789 51.5754 41.3391 51.5767C40.6579 51.5583 40.3033 51.37 40.0453 51.0798C39.7752 50.7759 39.6 50.3001 39.6 49.8001C39.6 49.3001 39.7752 48.8243 40.0453 48.5204C40.3155 48.2166 40.65 48.0001 41.4 48.0001ZM70.2002 76.8C70.9503 76.8 71.2848 77.0165 71.5549 77.3203C71.8251 77.6242 72.0003 78.1 72.0003 78.6C72.0003 79.1 71.8251 79.5758 71.5549 79.8797C71.2848 80.1836 70.9503 80.4 70.2002 80.4C69.4502 80.4 69.1157 80.1836 68.8456 79.8797C68.6085 79.6131 68.4509 79.2121 68.4143 78.7805C68.4275 78.659 68.4283 78.5365 68.4166 78.4149C68.4541 77.9852 68.6094 77.586 68.8456 77.3203C69.1157 77.0165 69.4502 76.8 70.2002 76.8Z"
    fill="white" />
  <defs>
    <linearGradient id="paint0_linear_95_547" x1="0.5" y1="0" x2="137.093" y2="23.4833" gradientUnits="userSpaceOnUse">
      <stop stop-color="#F58220" />
      <stop offset="1" stop-color="#FFC600" />
    </linearGradient>
  </defs>
</svg>