<svg width="120" height="120" viewBox="0 0 120 120" fill="none" xmlns="http://www.w3.org/2000/svg">
<path d="M24 1H96C108.703 1 119 11.2975 119 24V96C119 108.703 108.703 119 96 119H24C11.2975 119 1 108.703 1 96V24C1 11.2975 11.2975 1 24 1Z" fill="#F5F7FA" fill-opacity="0.04" stroke="url(#paint0_linear_95_556)" stroke-width="2"/>
<path d="M38 81.3333L52.6667 81.3333L52.6667 85L56.3333 85L56.3333 81.3333L63.6667 81.3333L63.6667 85L67.3333 85L67.3333 81.3333L82 81.3333L82 71.7083C82 66.7526 77.832 62.6562 74.1081 59.0755C72.2461 57.2708 70.4128 55.6237 69.1094 54.2773C68.4648 53.6042 67.9492 53.0026 67.6484 52.5443C67.3477 52.1003 67.3333 51.8281 67.3333 52L67.3333 48.3333C67.3333 44.9961 65.7865 41.8307 64.3255 39.3958C62.8646 36.9609 61.4036 35.2279 61.4036 35.2279L59.9714 33.5521L58.582 35.2565C58.582 35.2565 57.1211 37.0325 55.6745 39.4818C54.2279 41.931 52.6667 45.082 52.6667 48.3333L52.6667 52C52.6667 51.8281 52.638 52.1289 52.3372 52.5872C52.0365 53.0456 51.5208 53.6758 50.862 54.3633C49.5729 55.7526 47.7396 57.4284 45.8776 59.2474C44.0299 61.0807 42.125 63.0286 40.6354 65.0911C39.1602 67.1393 38 69.3021 38 71.7083L38 81.3333ZM41.6667 77.6667L41.6667 71.7083C41.6667 70.5768 42.3398 68.9727 43.6146 67.2396C44.875 65.4922 46.6367 63.6445 48.4557 61.8828C49.9453 60.4075 51.3633 59.0612 52.6667 57.7292L52.6667 63L56.3333 63L56.3333 48.3333C56.3333 46.3711 57.5221 43.5495 58.8255 41.3437C59.4271 40.3411 59.5417 40.2695 60.0143 39.625C60.4727 40.2552 60.5872 40.2982 61.1745 41.2865C62.4635 43.4492 63.6667 46.2422 63.6667 48.3333L63.6667 63L67.3333 63L67.3333 57.6432C68.6367 58.9466 70.069 60.2643 71.5586 61.7109C75.168 65.1914 78.3333 69.1445 78.3333 71.7083L78.3333 77.6667L67.3333 77.6667L67.3333 74L63.6667 74L63.6667 77.6667L56.3333 77.6667L56.3333 74L52.6667 74L52.6667 77.6667L41.6667 77.6667ZM71 74L74.6667 74L74.6667 70.3333L71 70.3333L71 74Z" fill="white"/>
<defs>
<linearGradient id="paint0_linear_95_556" x1="0" y1="0" x2="136.593" y2="23.4833" gradientUnits="userSpaceOnUse">
<stop stop-color="#F58220"/>
<stop offset="1" stop-color="#FFC600"/>
</linearGradient>
</defs>
</svg>
