<svg width="121" height="120" viewBox="0 0 121 120" fill="none" xmlns="http://www.w3.org/2000/svg">
<path d="M24.5 1H96.5C109.203 1 119.5 11.2975 119.5 24V96C119.5 108.703 109.203 119 96.5 119H24.5C11.7975 119 1.5 108.703 1.5 96V24C1.5 11.2975 11.7975 1 24.5 1Z" fill="#F5F7FA" fill-opacity="0.04" stroke="url(#paint0_linear_95_546)" stroke-width="2"/>
<path d="M47.1184 37C45.3058 37 43.7181 37.7475 42.706 38.8854C41.6938 40.0232 41.2307 41.472 41.2307 42.8943C41.2307 44.3166 41.6938 45.7653 42.706 46.9032C43.0235 47.2604 43.4006 47.5713 43.8174 47.836C40.4634 50.8592 38.1877 55.0665 37.718 59.7833L37.0962 59.1614C36.7588 58.8108 36.2891 58.6124 35.8062 58.6124C34.8139 58.6124 34.0068 59.4194 34.0068 60.4184C34.0068 60.9079 34.2052 61.371 34.5559 61.7084L38.1612 65.3137C38.8625 66.015 40.0069 66.015 40.7081 65.3137L44.3135 61.7084C45.0346 61.0204 45.0544 59.8759 44.3664 59.1614C43.6784 58.447 42.534 58.4205 41.8195 59.1085C41.7997 59.1284 41.7864 59.1416 41.7666 59.1614L41.4027 59.5253C42.0775 54.7821 44.975 50.7335 49.0104 48.4975C49.5727 48.3255 50.0821 48.0741 50.5386 47.7632C52.3049 47.0289 54.2299 46.6187 56.2542 46.6187C60.3293 46.6187 64.0339 48.266 66.7462 50.9187C66.9513 51.223 67.1696 51.5141 67.4143 51.7919C67.5533 51.9507 67.7186 52.083 67.9039 52.1889C70.0076 54.7755 71.2777 58.0633 71.2777 61.6422C71.2777 69.9114 64.53 76.6657 56.2542 76.6657H35.826C34.8337 76.6525 34.0134 77.4463 34.0002 78.4452C33.9869 79.4375 34.7808 80.2578 35.7797 80.2711C35.7995 80.2711 35.8128 80.2711 35.8326 80.2711H80.7509L80.2217 80.8003C79.5006 81.4883 79.4808 82.6327 80.1687 83.3472C80.8567 84.0617 82.0012 84.0881 82.7157 83.4001C82.7355 83.3803 82.7487 83.367 82.7686 83.3472L86.2218 79.894C87.009 79.2854 87.1612 78.1541 86.5526 77.3669C86.4533 77.2412 86.3409 77.1221 86.2086 77.0295L82.7686 73.5896C82.4312 73.2389 81.9615 73.0405 81.4786 73.0405C80.4863 73.0405 79.6792 73.8475 79.6792 74.8465C79.6792 75.336 79.8777 75.7991 80.2283 76.1365L80.7575 76.6657H67.1563C71.8135 73.272 74.8897 67.8143 74.8897 61.6422C74.8897 56.6344 72.872 52.0764 69.6172 48.7158C69.1608 47.9418 68.8829 46.9693 68.8829 45.8977C68.8829 42.8811 71.152 40.612 74.1686 40.612C76.8081 40.612 78.9118 42.5106 79.3617 44.9384L79.1698 44.7466C78.8324 44.396 78.3628 44.1975 77.8798 44.1975C76.8875 44.1975 76.0805 45.0046 76.0805 46.0035C76.0805 46.493 76.2789 46.9561 76.6295 47.2935L80.2349 50.8989C80.9361 51.6001 82.0806 51.6001 82.7818 50.8989L86.3872 47.2935C87.1083 46.6055 87.1281 45.461 86.4401 44.7466C85.7521 44.0321 84.6077 44.0057 83.8932 44.6937C83.8733 44.7135 83.8601 44.7267 83.8403 44.7466L83.053 45.5338C82.8546 40.8766 78.9978 37.0066 74.1818 37.0066C69.3659 37.0066 65.5819 40.7112 65.3173 45.3883C62.6314 43.8866 59.5553 43.02 56.2807 43.02C55.1627 43.02 54.0712 43.1391 52.9995 43.3309C53.0061 43.1854 53.0325 43.0464 53.0325 42.9009C53.0325 41.4786 52.5629 40.0298 51.5507 38.892C50.5386 37.7542 48.9509 37.0066 47.1383 37.0066L47.1184 37ZM47.1184 40.6054C48.0313 40.6054 48.4812 40.8832 48.8318 41.2735C49.1824 41.6638 49.4007 42.2658 49.4007 42.8877C49.4007 43.5095 49.1824 44.1049 48.8318 44.4952C48.7855 44.5481 48.7259 44.5944 48.673 44.6407C48.3356 44.7929 48.0049 44.9517 47.6807 45.117C47.5153 45.1435 47.3301 45.1634 47.1118 45.1634C46.1989 45.1634 45.7424 44.8855 45.3918 44.4886C45.0412 44.0917 44.8295 43.4963 44.8295 42.8811C44.8295 42.2658 45.0478 41.6638 45.3918 41.2669C45.7424 40.87 46.1989 40.5988 47.1118 40.5988L47.1184 40.6054Z" fill="white"/>
<defs>
<linearGradient id="paint0_linear_95_546" x1="0.5" y1="0" x2="137.093" y2="23.4833" gradientUnits="userSpaceOnUse">
<stop stop-color="#F58220"/>
<stop offset="1" stop-color="#FFC600"/>
</linearGradient>
</defs>
</svg>
