<svg version="1.1" id="Layer_1" xmlns="http://www.w3.org/2000/svg" xmlns:xlink="http://www.w3.org/1999/xlink"
	viewBox="519.48 197.18 427.03 473.62">
	<style type="text/css">
		.st0 {
			display: none;
		}

		.st1 {
			display: inline;
		}

		.st2 {
			fill: #141619;
		}

		.st3 {
			fill: url(#SVGID_1_);
		}

		.st4 {
			fill: url(#SVGID_00000167367819131992822040000011027973925045131181_);
		}

		.st5 {
			fill: url(#SVGID_00000178183168241165240650000017553606323737791902_);
		}

		.st6 {
			opacity: 0.7;
			fill: url(#SVGID_00000131332013394354341010000004973783846465281711_);
		}

		.st7 {
			fill: url(#SVGID_00000008116951147401681830000004087418702062886066_);
		}

		.st8 {
			fill: url(#SVGID_00000137128923049228457960000016426859397536678302_);
		}

		.st9 {
			fill: url(#SVGID_00000149380155824656703830000000440858893059398023_);
		}

		.st10 {
			fill: url(#SVGID_00000033357902575443057660000017900242979401465003_);
		}

		.st11 {
			fill: url(#SVGID_00000028304262901019122740000010382883456199781561_);
		}

		.st12 {
			fill: url(#SVGID_00000010304037516356542850000014194959846312375712_);
		}

		.st13 {
			fill: #ee3441;
		}

		.st14 {
			fill: url(#SVGID_00000166665601720292157540000008790213481236864157_);
		}

		.st15 {
			fill: url(#SVGID_00000044882491408909302920000011447514312020159902_);
		}

		.st16 {
			opacity: 0.2;
		}

		.st17 {
			fill: url(#SVGID_00000021840591117133107700000012178439192724913819_);
		}

		.st18 {
			fill: url(#SVGID_00000137815631328741289460000014861316536715399818_);
		}

		.st19 {
			opacity: 0.5;
		}

		.st20 {
			fill: url(#SVGID_00000132779764283586175280000000760012110200320671_);
		}

		.st21 {
			opacity: 0.7;
		}

		.st22 {
			fill: url(#SVGID_00000124153039468607395920000018418173649318303898_);
		}

		.st23 {
			opacity: 0.4;
			fill: url(#SVGID_00000152263905915971769360000000499779571893978511_);
		}

		.st24 {
			fill: url(#SVGID_00000044892791347325770080000015616427982933052294_);
		}

		.st25 {
			fill: none;
		}

		.st26 {
			fill: url(#SVGID_00000085929891306046656250000003034112767090790033_);
		}

		.st27 {
			fill: url(#SVGID_00000164492969222448036220000015323350835347238069_);
		}

		.st28 {
			fill: url(#SVGID_00000130644941840297942520000009174492637907450812_);
		}

		.st29 {
			fill: url(#SVGID_00000045604437865130533410000002349549915027690633_);
		}

		.st30 {
			fill: url(#SVGID_00000067222188673580370520000007695578357768022974_);
		}

		.st31 {
			fill: url(#SVGID_00000017514266590824751460000004949990635868719546_);
		}

		.st32 {
			fill: url(#SVGID_00000147930339586461800580000015303453513732649121_);
		}

		.st33 {
			opacity: 0.4;
		}

		.st34 {
			fill: url(#SVGID_00000062184065844018568690000001707357107667658909_);
		}

		.st35 {
			fill: url(#SVGID_00000090263916559103945960000006400299300460626345_);
		}

		.st36 {
			fill: url(#SVGID_00000127029508765070735390000016864280682503146409_);
		}

		.st37 {
			fill: url(#SVGID_00000106125292359253544540000016663234576143500174_);
		}

		.st38 {
			opacity: 0.3;
			fill: url(#SVGID_00000145016395848176218330000005527674869102378118_);
		}

		.st39 {
			fill: #f5f4f4;
		}

		.st40 {
			fill: #ffffff;
		}
	</style>

	<g>
		<g>
			<g>
				<linearGradient id="SVGID_1_" gradientUnits="userSpaceOnUse" x1="914.4853" y1="279.0658" x2="1059.4441"
					y2="414.9363" gradientTransform="matrix(0.9994 0.0336 -0.0336 0.9994 -88.6355 21.5396)">
					<stop offset="0" style="stop-color:#FFC600" />
					<stop offset="0.1613" style="stop-color:#F58220" />
					<stop offset="0.3621" style="stop-color:#B31E26" />
				</linearGradient>
				<path class="st3"
					d="M818.53,336.66c0,0,118.51-21.27,120.37,117.64l-14.71,45.59l-23.27-37.26     C900.91,462.63,879.92,383.01,818.53,336.66z" />

				<linearGradient id="SVGID_00000059286945043223639560000011879120648631619764_" gradientUnits="userSpaceOnUse"
					x1="-3570.7327" y1="2236.1953" x2="-3302.5728" y2="2487.543"
					gradientTransform="matrix(-0.9989 -0.0464 -0.0479 1.0313 -2573.7617 -2182.9207)">
					<stop offset="0" style="stop-color:#FFC600" />
					<stop offset="0.2144" style="stop-color:#F58220" />
					<stop offset="0.6392" style="stop-color:#D22630" />
				</linearGradient>
				<path style="fill:url(#SVGID_00000059286945043223639560000011879120648631619764_);"
					d="M771.26,645.42     c9.83-0.67,79.69-23.61,101.13-102.42c21.44-78.81,2.05-117.46,2.05-117.46c37.67,17.11,42.28,69.31,42.28,69.31     c9.38-170.79-163.53-213.18-163.53-213.18c43.99-14.69,85.13,5.95,85.13,5.95c-93.84-83.71-246.58-41.79-269.52-33.78     c36.98-27.12,81.03-47.56,129.33-45.32c117.05,5.44,253.95,123.24,248.2,247.06c-5.75,123.82-105.3,219.79-222.36,214.35" />

				<linearGradient id="SVGID_00000069375904291068481840000005092180590658613680_" gradientUnits="userSpaceOnUse"
					x1="-2123.2224" y1="752.1661" x2="-1819.6078" y2="1036.7454"
					gradientTransform="matrix(-0.9686 0.2487 0.2487 0.9686 -1407.2546 26.3658)">
					<stop offset="0" style="stop-color:#EF3340" />
					<stop offset="0.1682" style="stop-color:#B31E26" />
					<stop offset="0.7856" style="stop-color:#F58220" />
					<stop offset="1" style="stop-color:#FFC600" />
				</linearGradient>
				<path style="fill:url(#SVGID_00000069375904291068481840000005092180590658613680_);"
					d="M753.4,605.62     c54.67-14.04,75.79-58.04,75.79-58.04c7.13,45.36-26.5,77.39-26.5,77.39c10.1-3.82,77.88-48.31,75.69-135.16     c-2.19-86.85-39.7-117.85-39.7-117.85c44.86,5.31,71.11,54.79,71.11,54.79C866.17,250.41,697,266.08,697,266.08     c41.53-28.99,91.13-21.21,91.13-21.21c-124.61-54.92-247.08,26.37-268.64,41.85c30.29-39.36,73.09-69.13,124.44-82.31     c124.44-31.95,251.87,45.51,284.61,173.02s-41.6,256.78-166.05,288.73" />

				<linearGradient id="SVGID_00000168807448485126222690000001125300271418942116_" gradientUnits="userSpaceOnUse"
					x1="732.5673" y1="220.5471" x2="864.3669" y2="344.0835">
					<stop offset="0" style="stop-color:#FFC600" />
					<stop offset="0.2287" style="stop-color:#F58220" />
					<stop offset="0.3731" style="stop-color:#F2632D" />
					<stop offset="0.5243" style="stop-color:#F04938" />
					<stop offset="0.6611" style="stop-color:#EF393E" />
					<stop offset="0.7694" style="stop-color:#EE3441" />
				</linearGradient>
				<path style="opacity:0.7;fill:url(#SVGID_00000168807448485126222690000001125300271418942116_);"
					d="M897.08,305.47     C802.65,233.13,697,266.08,697,266.08s55.9-49.01,166.25-1.9c0,0,13.81,13.46,21.91,24.52     C893.27,299.76,897.08,305.47,897.08,305.47z" />
				<g>
					<linearGradient id="SVGID_00000139283759686019195400000000885581743726595980_" gradientUnits="userSpaceOnUse"
						x1="-4782.1235" y1="-1247.8719" x2="-4584.4019" y2="-1062.5466"
						gradientTransform="matrix(-0.3773 -0.9261 -0.9653 0.3933 -2084.5486 -3379.2529)">
						<stop offset="0" style="stop-color:#FFC600" />
						<stop offset="0.2144" style="stop-color:#F58220" />
						<stop offset="0.6392" style="stop-color:#D22630" />
					</linearGradient>
					<path style="fill:url(#SVGID_00000139283759686019195400000000885581743726595980_);"
						d="M650.64,585.39      c3.42,6.23,39.74,44.92,98.31,34.89c58.57-10.03,78.23-34.52,78.23-34.52c0.11,29.87-32.98,48.82-32.98,48.82      c115.68-46,91.3-172.05,91.3-172.05c23.04,24.29,21.86,57.51,21.86,57.51c26.88-86.94-38.21-158.99-50.45-171.56      c29.12,15.91,55.97,38.48,69.12,70.76c31.87,78.23-13.37,188.68-96.92,222.72c-83.55,34.04-177.12-1.78-208.99-80.01" />

					<linearGradient id="SVGID_00000113344622381187084410000014586496140458251455_" gradientUnits="userSpaceOnUse"
						x1="-2684.356" y1="-5388.4233" x2="-2478.2847" y2="-5195.272"
						gradientTransform="matrix(0.4118 -0.9113 -0.9499 -0.4292 -3230.8535 -4103.3486)">
						<stop offset="0" style="stop-color:#FFC600" />
						<stop offset="0.1613" style="stop-color:#F58220" />
						<stop offset="0.3621" style="stop-color:#D22630" />
					</linearGradient>
					<path style="fill:url(#SVGID_00000113344622381187084410000014586496140458251455_);"
						d="M575.73,464.26      c-2.23,6.99-6.76,62.08,42.38,98.79c49.14,36.71,79.46,30.56,79.46,30.56c-22.28,21.31-58,13.47-58,13.47      c116.67,53.9,180.89-42.02,180.89-42.02c-1.81,34.51-27.51,57.24-27.51,57.24c84.19-41.68,91.86-141.62,92.56-159.72      c8.79,33.11,6.86,68.63-7.96,101.42c-35.91,79.47-133.82,112.8-218.69,74.45S534.29,504.6,570.2,425.14" />

					<linearGradient id="SVGID_00000146479740132319310920000006977337989543625877_" gradientUnits="userSpaceOnUse"
						x1="-658.2544" y1="-6616.4146" x2="-423.7869" y2="-6396.647"
						gradientTransform="matrix(0.7238 -0.69 -0.7035 -0.7379 -3452.0991 -4673.6812)">
						<stop offset="0" style="stop-color:#FFC600" />
						<stop offset="0.1613" style="stop-color:#F58220" />
						<stop offset="0.3621" style="stop-color:#B31E26" />
					</linearGradient>
					<path style="fill:url(#SVGID_00000146479740132319310920000006977337989543625877_);"
						d="M581.85,387.69      c-5.35,6.4-13.89,39.75,9.24,104.05c9.34,25.97,36.39,60.46,36.39,60.46c-32.41,13.16-55.82-3.97-55.82-3.97      c97.8,104.37,233.26,35.65,233.26,35.65c-16.87,35.39-53.44,48.64-53.44,48.64c105.56-9.06,156.94-110.56,165.53-129.22      c-5.25,38.28-22.68,74.68-52.32,102.93c-71.82,68.46-188.01,63.15-259.53-11.87s-71.28-191.34,0.54-259.8" />

					<linearGradient id="SVGID_00000003095071800703647370000011171533726579777687_" gradientUnits="userSpaceOnUse"
						x1="3638.6345" y1="-6274.0928" x2="3812.969" y2="-6110.688"
						gradientTransform="matrix(0.9995 -0.0328 -0.0342 -1.0418 -3271.4773 -5836.1318)">
						<stop offset="0" style="stop-color:#FFC600" />
						<stop offset="0.2144" style="stop-color:#F58220" />
						<stop offset="0.6392" style="stop-color:#D22630" />
					</linearGradient>
					<path style="fill:url(#SVGID_00000003095071800703647370000011171533726579777687_);"
						d="M658.28,316.12      c-7.15,1.07-57.82,21.02-68.91,80.44c-11.08,59.41-9.75,59.64-9.75,59.64c-28.53-10.43-19.85-21.52-19.85-21.52      c3.09,126.59,115.82,141.65,115.82,141.65c-31.3,13.41-62.57,0.57-62.57,0.57c72.16,53.57,165.14,18.83,181.44,11.58      c-25.45,22.17-57.67,36.71-93.1,37.87c-85.88,2.82-157.93-69.25-160.94-160.97c-2-61.11,27.15-115.53,72.24-145.87" />

					<linearGradient id="SVGID_00000044895447353272209400000013754610477472922756_" gradientUnits="userSpaceOnUse"
						x1="-2459.5325" y1="-5791.3955" x2="-2203.0176" y2="-5550.9629"
						gradientTransform="matrix(0.4556 -0.8902 -0.8902 -0.4556 -3243.1423 -4154.0815)">
						<stop offset="0" style="stop-color:#EF3340" />
						<stop offset="0.1682" style="stop-color:#B31E26" />
						<stop offset="0.7856" style="stop-color:#F58220" />
						<stop offset="1" style="stop-color:#FFC600" />
					</linearGradient>
					<path style="fill:url(#SVGID_00000044895447353272209400000013754610477472922756_);"
						d="M596.5,407.02      c-21.94,42.86-5.77,81.24-5.77,81.24c-33.01-21.09-34.46-60.69-34.46-60.69c-3.27,8.61-13.16,77.07,43.56,124.77      c56.73,47.7,97.74,41.26,97.74,41.26c-28.75,25.66-75.21,14.46-75.21,14.46c137.33,71.82,222.96-45.12,222.96-45.12      c-4.95,42.92-37.97,70.21-37.97,70.21C912.89,584.6,930.19,460.4,932.48,437.88c8.03,41.6,2.84,85.78-17.76,126.04      c-49.94,97.57-171.47,135.18-271.44,84.01c-87.26-44.66-129.26-142.2-105.32-231.17c3.49-12.96,10.53-22.95,16.88-35.36" />
				</g>
			</g>
			<g>
				<path class="st13"
					d="M590.29,339.83l9.63-9.21c0,0-12.73-2.85-12.73-31.66c0,0,6.2,7.87,12.73,9.21c0,0-14.24-12.06-3.35-46.57     c0,0,6.53,21.78,44.56,45.06c38.02,23.28,70.18,44.39,53.1,77.05c0,0-6.53-16.42-24.62-16.42c-18.09,0-23.62,14.07-23.62,20.44     c0,6.37,1.81,16.51,10.53,21.99v7.99h-91.94l12.06-58.46L590.29,339.83z" />
				<g>
					<linearGradient id="SVGID_00000124127037789251179450000006888923360790268815_" gradientUnits="userSpaceOnUse"
						x1="603.838" y1="384.4739" x2="694.2323" y2="384.4739">
						<stop offset="0" style="stop-color:#B31E26" />
						<stop offset="1" style="stop-color:#EE3441" />
					</linearGradient>
					<path style="fill:url(#SVGID_00000124127037789251179450000006888923360790268815_);"
						d="M655.71,354.41      c-36.85,0-49.3,31.17-51.87,43.64c0,0,0.06,16.49,0,16.49c-0.04,0,35.73,0,52.69,0v-4.81c-8.73-5.48-10.53-15.62-10.53-21.99      c0-6.36,5.53-20.44,23.62-20.44s24.62,16.42,24.62,16.42S692.56,354.41,655.71,354.41z" />
				</g>

				<linearGradient id="SVGID_00000183928194577747026140000006260140306671284642_" gradientUnits="userSpaceOnUse"
					x1="534.0131" y1="427.7732" x2="1124.5363" y2="427.7732">
					<stop offset="0" style="stop-color:#EE3441" />
					<stop offset="1" style="stop-color:#FEE64C" />
				</linearGradient>
				<path style="fill:url(#SVGID_00000183928194577747026140000006260140306671284642_);"
					d="M590.29,339.83     c0,0-56.28,44.97-56.28,98.99c0,0,2.01,24.37,9.3,36.18c0,0,3.02-22.11,11.06-27.64c0,0-15.33,54.27,22.36,71.1     c0,0-5.03-13.82,2.76-32.41c0,0-7.04,56.53,60.05,62.81c0,0-18.84-18.09-18.84-35.43c0,0,12.81,32.16,46.48,32.16     s49.5-11.31,49.5-11.31s-33.42,0.75-45.73-17.84c0,0,15.83,6.78,36.68,6.78c20.85,0,46.73-11.06,57.03-33.42     c0,0-36.18,9.8-55.78-4.77c0,0,70.6,9.05,80.9-75.63c0,0-19.6,28.14-66.58,28.14c0,0,72.11-20.35,41.46-130.9     c0,0-30.15,103.27-114.57,103.27S590.29,339.83,590.29,339.83z" />
				<g class="st16">
					<linearGradient id="SVGID_00000119118606904808251280000009812665224549064381_" gradientUnits="userSpaceOnUse"
						x1="534.0131" y1="377.7737" x2="1124.5363" y2="377.7737">
						<stop offset="0" style="stop-color:#EE3441" />
						<stop offset="1" style="stop-color:#FEE64C" />
					</linearGradient>
					<path style="fill:url(#SVGID_00000119118606904808251280000009812665224549064381_);"
						d="M723.21,437.57      c0,0,72.11-20.35,41.46-130.9c0,0-28.14,96.35-106.15,102.9v0.16c0,0,14.67,39.15,66.43,39.15c31.29,0,50.17-9.64,60.22-17.27      c2.03-6.57,3.61-13.92,4.62-22.18C789.79,409.43,770.19,437.57,723.21,437.57z" />

					<linearGradient id="SVGID_00000134964878612389260260000001217559351861912987_" gradientUnits="userSpaceOnUse"
						x1="622.2866" y1="377.7737" x2="1063.3274" y2="377.7737">
						<stop offset="0" style="stop-color:#FFC600" />
						<stop offset="1" style="stop-color:#FEE64C" />
					</linearGradient>
					<path style="fill:url(#SVGID_00000134964878612389260260000001217559351861912987_);"
						d="M723.21,437.57      c0,0,72.11-20.35,41.46-130.9c0,0-28.14,96.35-106.15,102.9v0.16c0,0,14.67,39.15,66.43,39.15c31.29,0,50.17-9.64,60.22-17.27      c2.03-6.57,3.61-13.92,4.62-22.18C789.79,409.43,770.19,437.57,723.21,437.57z" />
				</g>
				<g class="st19">
					<linearGradient id="SVGID_00000003825314738756505370000016234829637484715442_" gradientUnits="userSpaceOnUse"
						x1="534.0131" y1="366.3519" x2="1124.5363" y2="366.3519">
						<stop offset="0" style="stop-color:#FFC600" />
						<stop offset="1" style="stop-color:#FEE64C" />
					</linearGradient>
					<path style="fill:url(#SVGID_00000003825314738756505370000016234829637484715442_);"
						d="M658.13,426.01      c84.86,0,106.37-118.46,106.53-119.33c-0.25,0.86-30.5,103.25-114.57,103.25c-84.42,0-59.8-70.1-59.8-70.1l0,0      C575.97,369.49,572.96,426.01,658.13,426.01z" />
				</g>
				<g class="st21">
					<linearGradient id="SVGID_00000054265669813582529100000007189022326603369901_" gradientUnits="userSpaceOnUse"
						x1="568.2224" y1="408.0497" x2="741.1044" y2="408.0497">
						<stop offset="0" style="stop-color:#F58220" />
						<stop offset="1" style="stop-color:#FFC600" />
					</linearGradient>
					<path style="fill:url(#SVGID_00000054265669813582529100000007189022326603369901_);"
						d="M573.42,420.99      c18.09,43.97,39.95,55.28,39.95,55.28s-7.54-13.82-4.02-28.14c0,0,12.81,19.6,42.71,19.6c29.9,0,70.6-14.57,70.6-14.57      s-33.17,4.52-42.46-16.58c0,0,55.97-4.65,60.9-81.34v-0.01c-17.94,26.8-47.16,54.72-91.05,54.72c-84.42,0-59.8-70.1-59.8-70.1      S555.33,377.02,573.42,420.99z" />
				</g>

				<radialGradient id="SVGID_00000147215660900678175120000012146465161848094384_" cx="-1806.7069" cy="2117.1333"
					r="288.1742" gradientTransform="matrix(0.4237 0 0 0.4237 1374.1433 -553.7304)" gradientUnits="userSpaceOnUse">
					<stop offset="0" style="stop-color:#EE3441;stop-opacity:0.3" />
					<stop offset="1" style="stop-color:#FEE64C" />
				</radialGradient>
				<path style="opacity:0.4;fill:url(#SVGID_00000147215660900678175120000012146465161848094384_);"
					d="M643.18,437.32     c0,0,31.4-1.01,41.33-33.69c-10.32,3.96-21.77,6.31-34.46,6.31c-44.44,0-58.66-19.42-62.16-37.82h-1.09     c0,0-18.45,24.69-11.68,52.89c1.27,5.29,3.42,10.69,6.75,16.09c0,0,1.49,2.89,5,6.4c3.74,3.75,9.79,8.22,18.87,10.69     c0,0-5.53-5.53-5.28-18.09c0,0,2.71,4.59,8.7,8.98c0.63,0.46,1.28,0.91,1.98,1.36c5.42,3.48,13.04,6.5,23.24,6.5     c24.12,0,39.45-15.33,39.45-15.33S656,446.62,643.18,437.32z" />
				<g class="st16">
					<linearGradient id="SVGID_00000040542925204666756840000010019115237656940212_" gradientUnits="userSpaceOnUse"
						x1="686.0985" y1="488.0113" x2="764.6577" y2="488.0113">
						<stop offset="0" style="stop-color:#FFC600" />
						<stop offset="1" style="stop-color:#FEE64C" />
					</linearGradient>
					<path style="fill:url(#SVGID_00000040542925204666756840000010019115237656940212_);"
						d="M708.96,485.06      c0,0-15.83-4.52-22.86-14.7c0,0,0.25,35.3,39.82,35.3c20.6,0,32.27-8.07,38.74-15.81C762.93,490.31,728.07,499.27,708.96,485.06      z" />
				</g>
				<path class="st25"
					d="M572.45,356.96c-0.19,0.21-0.38,0.42-0.57,0.63C572.07,357.38,572.26,357.16,572.45,356.96z" />
				<path class="st25" d="M579.39,487.26l0.1-1.2C579.49,486.06,579.44,486.5,579.39,487.26z" />

				<radialGradient id="SVGID_00000009576845273663931210000009287899898151981188_" cx="-1613.4811" cy="2329.1677"
					r="342.6214" gradientTransform="matrix(0.4237 0 0 0.4237 1374.1433 -553.7304)" gradientUnits="userSpaceOnUse">
					<stop offset="0" style="stop-color:#B31E26" />
					<stop offset="1" style="stop-color:#D22630;stop-opacity:0" />
				</radialGradient>
				<path style="fill:url(#SVGID_00000009576845273663931210000009287899898151981188_);"
					d="M748.33,401.64     c-26.13,28.39-44.47,34.67-60.55,34.67c0,0,6.79,5.17,35.43,1.26c0,0,72.11-20.35,41.46-130.9     C764.66,306.67,774.46,373.25,748.33,401.64z" />

				<radialGradient id="SVGID_00000168831372763168483870000013208933011785673129_" cx="-1615.4531" cy="2417.7241"
					r="274.7346" gradientTransform="matrix(0.4237 0 0 0.4237 1374.1433 -553.7304)" gradientUnits="userSpaceOnUse">
					<stop offset="0" style="stop-color:#B31E26" />
					<stop offset="1" style="stop-color:#D22630;stop-opacity:0" />
				</radialGradient>
				<path style="fill:url(#SVGID_00000168831372763168483870000013208933011785673129_);"
					d="M789.79,409.43     c0,0-24.12,65.07-69.6,65.07c0,0-24.5,1.01-34.04-4.27c0,0,9.92,13.32,22.74,14.82C708.89,485.06,779.49,494.1,789.79,409.43z" />

				<radialGradient id="SVGID_00000066481705706694101080000003698199964536578706_" cx="-1681.196" cy="2482.2334"
					r="241.4134" gradientTransform="matrix(0.4237 0 0 0.4237 1374.1433 -553.7304)" gradientUnits="userSpaceOnUse">
					<stop offset="0" style="stop-color:#B31E26" />
					<stop offset="1" style="stop-color:#D22630;stop-opacity:0" />
				</radialGradient>
				<path style="fill:url(#SVGID_00000066481705706694101080000003698199964536578706_);"
					d="M704.11,514.37     c0,0-30.15,0.5-42.21-15.58c0,0,2.85,12.73,9.05,17.67c0,0,15.83,6.78,36.68,6.78c20.85,0,46.73-11.06,57.03-33.42     C764.66,489.83,745.32,514.37,704.11,514.37z" />

				<radialGradient id="SVGID_00000063598039220754205900000010456156300820218505_" cx="-1777.8657" cy="2468.5928"
					r="246.9959" gradientTransform="matrix(0.4237 0 0 0.4237 1374.1433 -553.7304)" gradientUnits="userSpaceOnUse">
					<stop offset="0" style="stop-color:#B31E26" />
					<stop offset="1" style="stop-color:#D22630;stop-opacity:0" />
				</radialGradient>
				<path style="fill:url(#SVGID_00000063598039220754205900000010456156300820218505_);"
					d="M621.03,493.43     c0,0-2.52,9.07-0.34,20.02c0,0,12.81,32.16,46.48,32.16c33.67,0,49.5-11.31,49.5-11.31s-8.71,4.19-39.53,4.19     C646.32,538.49,627.23,512.36,621.03,493.43z" />

				<radialGradient id="SVGID_00000136381158312064458960000001972240725445748131_" cx="-1856.1504" cy="2415.8101"
					r="222.8932" gradientTransform="matrix(0.4237 0 0 0.4237 1374.1433 -553.7304)" gradientUnits="userSpaceOnUse">
					<stop offset="0" style="stop-color:#B31E26" />
					<stop offset="1" style="stop-color:#D22630;stop-opacity:0" />
				</radialGradient>
				<path style="fill:url(#SVGID_00000136381158312064458960000001972240725445748131_);"
					d="M588.03,470.32     c0,0-4.93,3.45-8.54,15.75l-0.1,1.2c-0.56,8.12-1.2,55.87,60.15,61.62C639.54,548.88,581.5,541.67,588.03,470.32z" />

				<radialGradient id="SVGID_00000126323733037718374220000017976092889556606883_" cx="-1912.4916" cy="2333.374"
					r="201.6117" gradientTransform="matrix(0.4237 0 0 0.4237 1374.1433 -553.7304)" gradientUnits="userSpaceOnUse">
					<stop offset="0" style="stop-color:#B31E26" />
					<stop offset="1" style="stop-color:#D22630;stop-opacity:0" />
				</radialGradient>
				<path style="fill:url(#SVGID_00000126323733037718374220000017976092889556606883_);"
					d="M562.91,436.32     c0,0-6.78,2.56-8.54,11.06c0,0-15.33,54.27,22.36,71.1C576.73,518.48,543.81,499.38,562.91,436.32z" />
				<path class="st13"
					d="M576.46,352.72c-1.29,1.33-2.63,2.73-4.01,4.24C573.74,355.53,575.07,354.12,576.46,352.72z" />

				<radialGradient id="SVGID_00000102507546507591827900000008947507746040210340_" cx="-1894.6996" cy="2151.3027"
					r="283.2253" gradientTransform="matrix(0.4237 0 0 0.4237 1374.1433 -553.7304)" gradientUnits="userSpaceOnUse">
					<stop offset="0" style="stop-color:#B31E26" />
					<stop offset="1" style="stop-color:#D22630;stop-opacity:0" />
				</radialGradient>
				<path style="fill:url(#SVGID_00000102507546507591827900000008947507746040210340_);"
					d="M571.88,357.59     c-16.42,18-37.86,47.89-37.86,81.24c0,0,2.01,24.37,9.3,36.18C543.31,475.01,526.62,408.35,571.88,357.59z" />
				<g class="st33">
					<linearGradient id="SVGID_00000022518342058902294820000008078373565908299662_" gradientUnits="userSpaceOnUse"
						x1="596.5753" y1="322.6656" x2="698.9319" y2="322.6656">
						<stop offset="0" style="stop-color:#F58220" />
						<stop offset="1" style="stop-color:#FFC600" />
					</linearGradient>
					<path style="fill:url(#SVGID_00000022518342058902294820000008078373565908299662_);"
						d="M641.13,306.67      c-38.02-23.28-44.56-45.06-44.56-45.06s3.77,48.58,42.21,68.42c38.44,19.85,50.84,31.74,55.44,53.68      C711.31,351.06,679.15,329.95,641.13,306.67z" />
				</g>
				<g class="st21">
					<linearGradient id="SVGID_00000029028003519372836330000009760042248150876569_" gradientUnits="userSpaceOnUse"
						x1="596.5747" y1="322.6656" x2="705.368" y2="322.6656">
						<stop offset="0" style="stop-color:#F58220" />
						<stop offset="1" style="stop-color:#FFC600" />
					</linearGradient>
					<path style="fill:url(#SVGID_00000029028003519372836330000009760042248150876569_);"
						d="M641.13,306.67      c-38.02-23.28-44.56-45.06-44.56-45.06s-0.67,36.35,44.22,59.13c44.89,22.78,61.79,43.58,53.43,62.98      C711.31,351.06,679.15,329.95,641.13,306.67z" />
				</g>

				<radialGradient id="SVGID_00000025405478607127832750000014355966863203445179_" cx="-1795.6577" cy="2043.958"
					r="124.4774" gradientTransform="matrix(0.4237 0 0 0.4237 1374.1433 -553.7304)" gradientUnits="userSpaceOnUse">
					<stop offset="0" style="stop-color:#B31E26" />
					<stop offset="1" style="stop-color:#D22630;stop-opacity:0" />
				</radialGradient>
				<path style="fill:url(#SVGID_00000025405478607127832750000014355966863203445179_);"
					d="M613.65,312.2     c-21.61-13.74-17.63-48.81-17.09-50.59c-10.89,34.51,3.35,46.57,3.35,46.57C607.89,312.55,613.65,312.2,613.65,312.2z" />

				<radialGradient id="SVGID_00000147902813994331736340000000962023393741928863_" cx="-1816.4149" cy="2076.5767"
					r="75.3753" gradientTransform="matrix(0.4237 0 0 0.4237 1374.1433 -553.7304)" gradientUnits="userSpaceOnUse">
					<stop offset="0" style="stop-color:#B31E26" />
					<stop offset="1" style="stop-color:#D22630;stop-opacity:0" />
				</radialGradient>
				<path style="fill:url(#SVGID_00000147902813994331736340000000962023393741928863_);"
					d="M587.18,298.96     c0,28.81,12.73,31.66,12.73,31.66l4.69-4.61C587.9,317.98,587.18,298.96,587.18,298.96z" />

				<linearGradient id="SVGID_00000025406907258760085170000014588256682126944920_" gradientUnits="userSpaceOnUse"
					x1="587.1843" y1="307.2554" x2="613.9847" y2="307.2554">
					<stop offset="0" style="stop-color:#FFC600" />
					<stop offset="1" style="stop-color:#FEE64C" />
				</linearGradient>
				<path style="opacity:0.3;fill:url(#SVGID_00000025406907258760085170000014588256682126944920_);"
					d="M606.2,315.55     c0,0,4.77-0.08,7.79-3.18c0,0-8.63-0.5-14.07-4.19c-6.53-1.34-12.73-9.21-12.73-9.21S591.29,315.55,606.2,315.55z" />
			</g>
			<path class="st39" d="M626.16,321.25c0,0,14.1,4.27,23.64,14.38C649.8,335.63,629.01,343.47,626.16,321.25z" />
		</g>
	</g>
</svg>